<?xml version="1.0" encoding="UTF-8" standalone="no"?>
<!DOCTYPE svg PUBLIC "-//W3C//DTD SVG 1.1//EN"
 "http://www.w3.org/Graphics/SVG/1.1/DTD/svg11.dtd">
<!-- Generated by graphviz version 2.40.1 (20161225.0304)
 -->
<!-- Title: %3 Pages: 1 -->
<svg width="244pt" height="1036pt"
 viewBox="0.00 0.00 243.98 1035.70" xmlns="http://www.w3.org/2000/svg" xmlns:xlink="http://www.w3.org/1999/xlink">
<g id="graph0" class="graph" transform="scale(1 1) rotate(0) translate(4 1031.6955)">
<title>%3</title>
<polygon fill="#ffffff" stroke="transparent" points="-4,4 -4,-1031.6955 239.9804,-1031.6955 239.9804,4 -4,4"/>
<text text-anchor="middle" x="117.9902" y="-10.8" font-family="Lato" font-size="24.00" fill="#000000">Custom Styler Class</text>
<g id="clust1" class="cluster">
<title>cluster_140641367502288</title>
<polygon fill="#ffffff" stroke="#000000" points="11.9804,-135.5391 11.9804,-946.1564 227.9804,-946.1564 227.9804,-135.5391 11.9804,-135.5391"/>
<text text-anchor="middle" x="119.9804" y="-922.9564" font-family="Lato" font-size="24.00" fill="#000000">ConvSample</text>
</g>
<!-- 140641367274896 -->
<g id="node1" class="node">
<title>140641367274896</title>
<polygon fill="#d3d3d3" stroke="#000000" points="145.9804,-195.5391 71.9804,-195.5391 71.9804,-143.5391 145.9804,-143.5391 145.9804,-195.5391"/>
<text text-anchor="middle" x="108.9804" y="-175.5391" font-family="Lato" font-size="20.00" fill="#000000">relu</text>
<text text-anchor="middle" x="108.9804" y="-153.5391" font-family="Lato" font-size="20.00" fill="#000000">(ReLU)</text>
</g>
<!-- 140641366856400 -->
<g id="node2" class="node">
<title>140641366856400</title>
<ellipse fill="#add8e6" stroke="#000000" cx="108.9804" cy="-70.7696" rx="74.9067" ry="36.5405"/>
<text text-anchor="middle" x="108.9804" y="-76.7696" font-family="Lato" font-size="20.00" fill="#000000">Output</text>
<text text-anchor="middle" x="108.9804" y="-54.7696" font-family="Lato" font-size="20.00" fill="#000000">[1, 5, 5, 5]</text>
</g>
<!-- 140641367274896&#45;&gt;140641366856400 -->
<g id="edge1" class="edge">
<title>140641367274896&#45;&gt;140641366856400</title>
<path fill="none" stroke="#000000" d="M108.9804,-143.33C108.9804,-135.5254 108.9804,-126.7221 108.9804,-118.008"/>
<polygon fill="#000000" stroke="#000000" points="112.4805,-117.8847 108.9804,-107.8847 105.4805,-117.8848 112.4805,-117.8847"/>
</g>
<!-- 140641366785680 -->
<g id="node3" class="node">
<title>140641366785680</title>
<ellipse fill="#add8e6" stroke="#000000" cx="121.9804" cy="-449.8478" rx="74.9067" ry="36.5405"/>
<text text-anchor="middle" x="121.9804" y="-455.8478" font-family="Lato" font-size="20.00" fill="#000000">Tensor&#45;3</text>
<text text-anchor="middle" x="121.9804" y="-433.8478" font-family="Lato" font-size="20.00" fill="#000000">[1, 5, 5, 5]</text>
</g>
<!-- 140641366856016 -->
<g id="node5" class="node">
<title>140641366856016</title>
<polygon fill="#ffa500" stroke="#000000" points="184.4804,-377.0782 33.4804,-377.0782 33.4804,-341.0782 184.4804,-341.0782 184.4804,-377.0782"/>
<text text-anchor="middle" x="108.9804" y="-354.0782" font-family="Lato" font-size="20.00" fill="#000000">AddBackward0</text>
</g>
<!-- 140641366785680&#45;&gt;140641366856016 -->
<g id="edge2" class="edge">
<title>140641366785680&#45;&gt;140641366856016</title>
<path fill="none" stroke="#000000" d="M116.6928,-412.9283C115.4807,-404.4647 114.2102,-395.5939 113.0582,-387.5502"/>
<polygon fill="#000000" stroke="#000000" points="116.5093,-386.9589 111.6268,-377.5562 109.58,-387.9514 116.5093,-386.9589"/>
</g>
<!-- 140641366856144 -->
<g id="node4" class="node">
<title>140641366856144</title>
<ellipse fill="#add8e6" stroke="#000000" cx="108.9804" cy="-268.3087" rx="74.9067" ry="36.5405"/>
<text text-anchor="middle" x="108.9804" y="-274.3087" font-family="Lato" font-size="20.00" fill="#000000">Tensor&#45;4</text>
<text text-anchor="middle" x="108.9804" y="-252.3087" font-family="Lato" font-size="20.00" fill="#000000">[1, 5, 5, 5]</text>
</g>
<!-- 140641366856144&#45;&gt;140641367274896 -->
<g id="edge3" class="edge">
<title>140641366856144&#45;&gt;140641367274896</title>
<path fill="none" stroke="#00228f" stroke-width="4.8" d="M108.9804,-231.5305C108.9804,-223.1235 108.9804,-214.1942 108.9804,-205.8087"/>
<polygon fill="#00228f" stroke="#00228f" stroke-width="4.8" points="113.1805,-205.5582 108.9804,-195.5583 104.7805,-205.5583 113.1805,-205.5582"/>
</g>
<!-- 140641366856016&#45;&gt;140641366856144 -->
<g id="edge4" class="edge">
<title>140641366856016&#45;&gt;140641366856144</title>
<path fill="none" stroke="#000000" d="M108.9804,-340.7096C108.9804,-333.3326 108.9804,-324.4582 108.9804,-315.4902"/>
<polygon fill="#000000" stroke="#000000" points="112.4805,-315.3999 108.9804,-305.4 105.4805,-315.4 112.4805,-315.3999"/>
</g>
<!-- 140641366785168 -->
<g id="node6" class="node">
<title>140641366785168</title>
<ellipse fill="#add8e6" stroke="#000000" cx="119.9804" cy="-713.3869" rx="74.9067" ry="36.5405"/>
<text text-anchor="middle" x="119.9804" y="-719.3869" font-family="Lato" font-size="20.00" fill="#000000">Tensor&#45;2</text>
<text text-anchor="middle" x="119.9804" y="-697.3869" font-family="Lato" font-size="20.00" fill="#000000">[1, 5, 5, 5]</text>
</g>
<!-- 140641366785168&#45;&gt;140641366856016 -->
<g id="edge5" class="edge">
<title>140641366785168&#45;&gt;140641366856016</title>
<path fill="none" stroke="#000000" d="M70.6365,-685.3447C54.9809,-673.7009 39.5303,-658.6521 30.9804,-640.6173 -12.3613,-549.1944 -9.8315,-502.2448 37.9804,-413.0782 44.3953,-401.1147 54.7415,-391.0129 65.5745,-382.9005"/>
<polygon fill="#000000" stroke="#000000" points="67.7032,-385.6829 73.8965,-377.0867 63.6944,-379.9445 67.7032,-385.6829"/>
</g>
<!-- 140641367250000 -->
<g id="node7" class="node">
<title>140641367250000</title>
<polygon fill="#d3d3d3" stroke="#000000" stroke-width="2.4" points="219.4804,-640.6173 40.4804,-640.6173 40.4804,-522.6173 219.4804,-522.6173 219.4804,-640.6173"/>
<text text-anchor="middle" x="129.9804" y="-620.6173" font-family="Lato" font-size="20.00" fill="#000000">conv2</text>
<text text-anchor="middle" x="129.9804" y="-598.6173" font-family="Lato" font-size="20.00" fill="#000000">(Conv2d)</text>
<text text-anchor="middle" x="129.9804" y="-576.6173" font-family="Lato" font-size="20.00" fill="#000000">(kernel_size=(3, 3),</text>
<text text-anchor="middle" x="129.9804" y="-554.6173" font-family="Lato" font-size="20.00" fill="#000000">padding=(1, 1),</text>
<text text-anchor="middle" x="129.9804" y="-532.6173" font-family="Lato" font-size="20.00" fill="#000000">stride=(1, 1))</text>
</g>
<!-- 140641366785168&#45;&gt;140641367250000 -->
<g id="edge6" class="edge">
<title>140641366785168&#45;&gt;140641367250000</title>
<path fill="none" stroke="#000000" d="M122.7926,-676.331C123.3905,-668.4525 124.0404,-659.8888 124.6968,-651.239"/>
<polygon fill="#000000" stroke="#000000" points="128.2008,-651.3173 125.4677,-641.0811 121.2209,-650.7876 128.2008,-651.3173"/>
</g>
<!-- 140641367250000&#45;&gt;140641366785680 -->
<g id="edge7" class="edge">
<title>140641367250000&#45;&gt;140641366785680</title>
<path fill="none" stroke="#ee8800" stroke-width="4.8" d="M126.3783,-522.2856C125.865,-513.8322 125.343,-505.2334 124.8464,-497.0534"/>
<polygon fill="#ee8800" stroke="#ee8800" stroke-width="4.8" points="129.0319,-496.6855 124.2335,-486.9585 120.6473,-497.1946 129.0319,-496.6855"/>
</g>
<!-- 140641367514832 -->
<g id="node8" class="node">
<title>140641367514832</title>
<polygon fill="#d3d3d3" stroke="#000000" stroke-width="2.4" points="209.4804,-904.1564 30.4804,-904.1564 30.4804,-786.1564 209.4804,-786.1564 209.4804,-904.1564"/>
<text text-anchor="middle" x="119.9804" y="-884.1564" font-family="Lato" font-size="20.00" fill="#000000">conv1</text>
<text text-anchor="middle" x="119.9804" y="-862.1564" font-family="Lato" font-size="20.00" fill="#000000">(Conv2d)</text>
<text text-anchor="middle" x="119.9804" y="-840.1564" font-family="Lato" font-size="20.00" fill="#000000">(kernel_size=(5, 5),</text>
<text text-anchor="middle" x="119.9804" y="-818.1564" font-family="Lato" font-size="20.00" fill="#000000">padding=(2, 2),</text>
<text text-anchor="middle" x="119.9804" y="-796.1564" font-family="Lato" font-size="20.00" fill="#000000">stride=(2, 2))</text>
</g>
<!-- 140641367514832&#45;&gt;140641366785168 -->
<g id="edge8" class="edge">
<title>140641367514832&#45;&gt;140641366785168</title>
<path fill="none" stroke="#ee8800" stroke-width="4.8" d="M119.9804,-785.8247C119.9804,-777.3713 119.9804,-768.7725 119.9804,-760.5925"/>
<polygon fill="#ee8800" stroke="#ee8800" stroke-width="4.8" points="124.1805,-760.4975 119.9804,-750.4976 115.7805,-760.4976 124.1805,-760.4975"/>
</g>
<!-- 140641366784912 -->
<g id="node9" class="node">
<title>140641366784912</title>
<ellipse fill="#add8e6" stroke="#000000" cx="119.9804" cy="-990.926" rx="91.8478" ry="36.5405"/>
<text text-anchor="middle" x="119.9804" y="-996.926" font-family="Lato" font-size="20.00" fill="#000000">Input</text>
<text text-anchor="middle" x="119.9804" y="-974.926" font-family="Lato" font-size="20.00" fill="#000000">[1, 1, 10, 10]</text>
</g>
<!-- 140641366784912&#45;&gt;140641367514832 -->
<g id="edge9" class="edge">
<title>140641366784912&#45;&gt;140641367514832</title>
<path fill="none" stroke="#000000" d="M119.9804,-954.1422C119.9804,-942.1116 119.9804,-928.3254 119.9804,-914.6955"/>
<polygon fill="#000000" stroke="#000000" points="123.4805,-914.3348 119.9804,-904.3348 116.4805,-914.3349 123.4805,-914.3348"/>
</g>
</g>
</svg>
