<?xml version="1.0" encoding="UTF-8" standalone="no"?>
<!DOCTYPE svg PUBLIC "-//W3C//DTD SVG 1.1//EN"
 "http://www.w3.org/Graphics/SVG/1.1/DTD/svg11.dtd">
<!-- Generated by graphviz version 2.40.1 (20161225.0304)
 -->
<!-- Title: %3 Pages: 1 -->
<svg width="572pt" height="1125pt"
 viewBox="0.00 0.00 572.43 1124.77" xmlns="http://www.w3.org/2000/svg" xmlns:xlink="http://www.w3.org/1999/xlink">
<g id="graph0" class="graph" transform="scale(1 1) rotate(0) translate(4 1120.7737)">
<title>%3</title>
<polygon fill="#ffffff" stroke="transparent" points="-4,4 -4,-1120.7737 568.4264,-1120.7737 568.4264,4 -4,4"/>
<text text-anchor="middle" x="282.2132" y="-10.8" font-family="Times,serif" font-size="24.00" fill="#000000">Sample Net at depth=2</text>
<g id="clust1" class="cluster">
<title>cluster_140225290592328</title>
<polygon fill="#ffffff" stroke="#000000" points="8,-42 8,-1108.7737 472,-1108.7737 472,-42 8,-42"/>
<text text-anchor="middle" x="240" y="-1085.5737" font-family="Times,serif" font-size="24.00" fill="#000000">Sample Net</text>
</g>
<g id="clust2" class="cluster">
<title>cluster_140225290681536</title>
<polygon fill="#ffffff" stroke="#000000" points="72,-151.5391 72,-237.5391 247,-237.5391 247,-151.5391 72,-151.5391"/>
<text text-anchor="middle" x="159.5" y="-214.3391" font-family="Times,serif" font-size="24.00" fill="#000000">my_special_relu</text>
</g>
<g id="clust3" class="cluster">
<title>cluster_140225291079408</title>
<polygon fill="#ffffff" stroke="#000000" points="252,-761.6955 252,-1066.7737 464,-1066.7737 464,-761.6955 252,-761.6955"/>
<text text-anchor="middle" x="358" y="-1043.5737" font-family="Times,serif" font-size="24.00" fill="#000000">linear_1</text>
</g>
<g id="clust4" class="cluster">
<title>cluster_140225290681200</title>
<polygon fill="#ffffff" stroke="#000000" points="16,-761.6955 16,-1066.7737 244,-1066.7737 244,-761.6955 16,-761.6955"/>
<text text-anchor="middle" x="130" y="-1043.5737" font-family="Times,serif" font-size="24.00" fill="#000000">linear_2</text>
</g>
<g id="clust5" class="cluster">
<title>cluster_140225290681368</title>
<polygon fill="#ffffff" stroke="#000000" points="29,-347.0782 29,-652.1564 257,-652.1564 257,-347.0782 29,-347.0782"/>
<text text-anchor="middle" x="143" y="-628.9564" font-family="Times,serif" font-size="24.00" fill="#000000">linear_3</text>
</g>
<!-- 140225290757176 -->
<g id="node1" class="node">
<title>140225290757176</title>
<ellipse fill="#add8e6" stroke="#000000" cx="159" cy="-282.3087" rx="62.4516" ry="36.5405"/>
<text text-anchor="middle" x="159" y="-288.3087" font-family="Times,serif" font-size="20.00" fill="#000000">Tensor&#45;5</text>
<text text-anchor="middle" x="159" y="-266.3087" font-family="Times,serif" font-size="20.00" fill="#000000">[1, 1]</text>
</g>
<!-- 140225290757568 -->
<g id="node2" class="node">
<title>140225290757568</title>
<polygon fill="#ffa500" stroke="#000000" points="231.5,-195.5391 86.5,-195.5391 86.5,-159.5391 231.5,-159.5391 231.5,-195.5391"/>
<text text-anchor="middle" x="159" y="-172.5391" font-family="Times,serif" font-size="20.00" fill="#000000">ReluBackward0</text>
</g>
<!-- 140225290757176&#45;&gt;140225290757568 -->
<g id="edge1" class="edge">
<title>140225290757176&#45;&gt;140225290757568</title>
<path fill="none" stroke="#000000" d="M159,-245.3708C159,-232.339 159,-217.9064 159,-205.7159"/>
<polygon fill="#000000" stroke="#000000" points="162.5001,-205.6717 159,-195.6718 155.5001,-205.6718 162.5001,-205.6717"/>
</g>
<!-- 140225290757624 -->
<g id="node5" class="node">
<title>140225290757624</title>
<ellipse fill="#add8e6" stroke="#000000" cx="159" cy="-86.7696" rx="50.41" ry="36.5405"/>
<text text-anchor="middle" x="159" y="-92.7696" font-family="Times,serif" font-size="20.00" fill="#000000">Output</text>
<text text-anchor="middle" x="159" y="-70.7696" font-family="Times,serif" font-size="20.00" fill="#000000">[1, 1]</text>
</g>
<!-- 140225290757568&#45;&gt;140225290757624 -->
<g id="edge3" class="edge">
<title>140225290757568&#45;&gt;140225290757624</title>
<path fill="none" stroke="#000000" d="M159,-159.1705C159,-151.7935 159,-142.9191 159,-133.9511"/>
<polygon fill="#000000" stroke="#000000" points="162.5001,-133.8608 159,-123.8608 155.5001,-133.8609 162.5001,-133.8608"/>
</g>
<!-- 140225290757064 -->
<g id="node3" class="node">
<title>140225290757064</title>
<ellipse fill="#add8e6" stroke="#000000" cx="329" cy="-463.8478" rx="62.4516" ry="36.5405"/>
<text text-anchor="middle" x="329" y="-469.8478" font-family="Times,serif" font-size="20.00" fill="#000000">Tensor&#45;4</text>
<text text-anchor="middle" x="329" y="-447.8478" font-family="Times,serif" font-size="20.00" fill="#000000">[1, 6]</text>
</g>
<!-- 140225290757120 -->
<g id="node4" class="node">
<title>140225290757120</title>
<polygon fill="#ffa500" stroke="#000000" points="248.5,-391.0782 69.5,-391.0782 69.5,-355.0782 248.5,-355.0782 248.5,-391.0782"/>
<text text-anchor="middle" x="159" y="-368.0782" font-family="Times,serif" font-size="20.00" fill="#000000">AddmmBackward&#45;3</text>
</g>
<!-- 140225290757064&#45;&gt;140225290757120 -->
<g id="edge2" class="edge">
<title>140225290757064&#45;&gt;140225290757120</title>
<path fill="none" stroke="#000000" d="M282.941,-438.8715C275.6074,-434.9152 268.1001,-430.8772 261,-427.0782 241.8935,-416.8551 220.7265,-405.6324 202.6499,-396.079"/>
<polygon fill="#000000" stroke="#000000" points="203.983,-392.825 193.5059,-391.2496 200.7138,-399.0147 203.983,-392.825"/>
</g>
<!-- 140225290757120&#45;&gt;140225290757176 -->
<g id="edge12" class="edge">
<title>140225290757120&#45;&gt;140225290757176</title>
<path fill="none" stroke="#000000" d="M159,-354.7096C159,-347.3326 159,-338.4582 159,-329.4902"/>
<polygon fill="#000000" stroke="#000000" points="162.5001,-329.3999 159,-319.4 155.5001,-329.4 162.5001,-329.3999"/>
</g>
<!-- 140225290756392 -->
<g id="node6" class="node">
<title>140225290756392</title>
<ellipse fill="#add8e6" stroke="#000000" cx="166" cy="-696.926" rx="62.4516" ry="36.5405"/>
<text text-anchor="middle" x="166" y="-702.926" font-family="Times,serif" font-size="20.00" fill="#000000">Tensor&#45;3</text>
<text text-anchor="middle" x="166" y="-680.926" font-family="Times,serif" font-size="20.00" fill="#000000">[1, 3]</text>
</g>
<!-- 140225290756840 -->
<g id="node7" class="node">
<title>140225290756840</title>
<polygon fill="#ffa500" stroke="#000000" points="391.5,-591.3869 266.5,-591.3869 266.5,-555.3869 391.5,-555.3869 391.5,-591.3869"/>
<text text-anchor="middle" x="329" y="-568.3869" font-family="Times,serif" font-size="20.00" fill="#000000">CatBackward</text>
</g>
<!-- 140225290756392&#45;&gt;140225290756840 -->
<g id="edge16" class="edge">
<title>140225290756392&#45;&gt;140225290756840</title>
<path fill="none" stroke="#000000" d="M218.5322,-676.9273C233.0037,-670.183 248.2223,-661.8604 261,-652.1564 280.3578,-637.4553 298.1512,-616.4489 310.6774,-599.8258"/>
<polygon fill="#000000" stroke="#000000" points="313.6285,-601.7205 316.7281,-591.5892 307.987,-597.5762 313.6285,-601.7205"/>
</g>
<!-- 140225290756840&#45;&gt;140225290757064 -->
<g id="edge17" class="edge">
<title>140225290756840&#45;&gt;140225290757064</title>
<path fill="none" stroke="#000000" d="M329,-555.2987C329,-543.2357 329,-526.7791 329,-511.1492"/>
<polygon fill="#000000" stroke="#000000" points="332.5001,-511.0521 329,-501.0521 325.5001,-511.0521 332.5001,-511.0521"/>
</g>
<!-- 140225290681984 -->
<g id="node8" class="node">
<title>140225290681984</title>
<polygon fill="#ffa500" stroke="#000000" points="423.5,-805.6955 260.5,-805.6955 260.5,-769.6955 423.5,-769.6955 423.5,-805.6955"/>
<text text-anchor="middle" x="342" y="-782.6955" font-family="Times,serif" font-size="20.00" fill="#000000">AddmmBackward</text>
</g>
<!-- 140225290682040 -->
<g id="node9" class="node">
<title>140225290682040</title>
<ellipse fill="#add8e6" stroke="#000000" cx="335" cy="-696.926" rx="62.4516" ry="36.5405"/>
<text text-anchor="middle" x="335" y="-702.926" font-family="Times,serif" font-size="20.00" fill="#000000">Tensor&#45;2</text>
<text text-anchor="middle" x="335" y="-680.926" font-family="Times,serif" font-size="20.00" fill="#000000">[1, 3]</text>
</g>
<!-- 140225290681984&#45;&gt;140225290682040 -->
<g id="edge4" class="edge">
<title>140225290681984&#45;&gt;140225290682040</title>
<path fill="none" stroke="#000000" d="M340.5834,-769.327C340.0145,-761.9499 339.3302,-753.0755 338.6386,-744.1075"/>
<polygon fill="#000000" stroke="#000000" points="342.1191,-743.7185 337.8604,-734.0173 335.1398,-744.2568 342.1191,-743.7185"/>
</g>
<!-- 140225290682040&#45;&gt;140225290756840 -->
<g id="edge18" class="edge">
<title>140225290682040&#45;&gt;140225290756840</title>
<path fill="none" stroke="#000000" d="M333.1998,-659.8602C332.2908,-641.1436 331.2058,-618.8041 330.3664,-601.52"/>
<polygon fill="#000000" stroke="#000000" points="333.8603,-601.3074 329.8792,-591.489 326.8685,-601.6471 333.8603,-601.3074"/>
</g>
<!-- 140225290681816 -->
<g id="node10" class="node">
<title>140225290681816</title>
<ellipse fill="#556b2f" stroke="#000000" cx="401" cy="-988.0042" rx="49.4949" ry="36.5405"/>
<text text-anchor="middle" x="401" y="-994.0042" font-family="Times,serif" font-size="20.00" fill="#000000">weight</text>
<text text-anchor="middle" x="401" y="-972.0042" font-family="Times,serif" font-size="20.00" fill="#000000">[3, 3]</text>
</g>
<!-- 140225290682320 -->
<g id="node12" class="node">
<title>140225290682320</title>
<polygon fill="#ffa500" stroke="#000000" points="456,-896.4651 346,-896.4651 346,-860.4651 456,-860.4651 456,-896.4651"/>
<text text-anchor="middle" x="401" y="-873.4651" font-family="Times,serif" font-size="20.00" fill="#000000">TBackward</text>
</g>
<!-- 140225290681816&#45;&gt;140225290682320 -->
<g id="edge5" class="edge">
<title>140225290681816&#45;&gt;140225290682320</title>
<path fill="none" stroke="#000000" d="M401,-951.2245C401,-936.7079 401,-920.2946 401,-906.7358"/>
<polygon fill="#000000" stroke="#000000" points="404.5001,-906.5647 401,-896.5647 397.5001,-906.5648 404.5001,-906.5647"/>
</g>
<!-- 140225290681872 -->
<g id="node11" class="node">
<title>140225290681872</title>
<ellipse fill="#556b2f" stroke="#000000" cx="294" cy="-878.4651" rx="33.8824" ry="36.5405"/>
<text text-anchor="middle" x="294" y="-884.4651" font-family="Times,serif" font-size="20.00" fill="#000000">bias</text>
<text text-anchor="middle" x="294" y="-862.4651" font-family="Times,serif" font-size="20.00" fill="#000000">[3]</text>
</g>
<!-- 140225290681872&#45;&gt;140225290681984 -->
<g id="edge6" class="edge">
<title>140225290681872&#45;&gt;140225290681984</title>
<path fill="none" stroke="#000000" d="M310.923,-846.4631C316.3638,-836.1743 322.3376,-824.8778 327.5813,-814.9618"/>
<polygon fill="#000000" stroke="#000000" points="330.763,-816.432 332.3438,-805.9558 324.575,-813.1597 330.763,-816.432"/>
</g>
<!-- 140225290682320&#45;&gt;140225290681984 -->
<g id="edge7" class="edge">
<title>140225290682320&#45;&gt;140225290681984</title>
<path fill="none" stroke="#000000" d="M389.0605,-860.0965C380.5278,-846.9693 368.9134,-829.101 359.358,-814.4002"/>
<polygon fill="#000000" stroke="#000000" points="362.1049,-812.204 353.7204,-805.727 356.2358,-816.0189 362.1049,-812.204"/>
</g>
<!-- 140225290756336 -->
<g id="node13" class="node">
<title>140225290756336</title>
<polygon fill="#ffa500" stroke="#000000" points="235.5,-805.6955 56.5,-805.6955 56.5,-769.6955 235.5,-769.6955 235.5,-805.6955"/>
<text text-anchor="middle" x="146" y="-782.6955" font-family="Times,serif" font-size="20.00" fill="#000000">AddmmBackward&#45;2</text>
</g>
<!-- 140225290756336&#45;&gt;140225290756392 -->
<g id="edge8" class="edge">
<title>140225290756336&#45;&gt;140225290756392</title>
<path fill="none" stroke="#000000" d="M150.0473,-769.327C151.707,-761.7945 153.7106,-752.701 155.729,-743.5406"/>
<polygon fill="#000000" stroke="#000000" points="159.1755,-744.164 157.9094,-733.6451 152.3395,-742.6577 159.1755,-744.164"/>
</g>
<!-- 140225290682264 -->
<g id="node14" class="node">
<title>140225290682264</title>
<ellipse fill="#556b2f" stroke="#000000" cx="173" cy="-988.0042" rx="49.4949" ry="36.5405"/>
<text text-anchor="middle" x="173" y="-994.0042" font-family="Times,serif" font-size="20.00" fill="#000000">weight</text>
<text text-anchor="middle" x="173" y="-972.0042" font-family="Times,serif" font-size="20.00" fill="#000000">[3, 3]</text>
</g>
<!-- 140225290756616 -->
<g id="node15" class="node">
<title>140225290756616</title>
<polygon fill="#ffa500" stroke="#000000" points="236,-896.4651 110,-896.4651 110,-860.4651 236,-860.4651 236,-896.4651"/>
<text text-anchor="middle" x="173" y="-873.4651" font-family="Times,serif" font-size="20.00" fill="#000000">TBackward&#45;2</text>
</g>
<!-- 140225290682264&#45;&gt;140225290756616 -->
<g id="edge9" class="edge">
<title>140225290682264&#45;&gt;140225290756616</title>
<path fill="none" stroke="#000000" d="M173,-951.2245C173,-936.7079 173,-920.2946 173,-906.7358"/>
<polygon fill="#000000" stroke="#000000" points="176.5001,-906.5647 173,-896.5647 169.5001,-906.5648 176.5001,-906.5647"/>
</g>
<!-- 140225290756616&#45;&gt;140225290756336 -->
<g id="edge10" class="edge">
<title>140225290756616&#45;&gt;140225290756336</title>
<path fill="none" stroke="#000000" d="M167.5361,-860.0965C163.7419,-847.3408 158.616,-830.1086 154.317,-815.6559"/>
<polygon fill="#000000" stroke="#000000" points="157.5695,-814.3141 151.3636,-805.727 150.86,-816.3099 157.5695,-814.3141"/>
</g>
<!-- 140225290756224 -->
<g id="node16" class="node">
<title>140225290756224</title>
<ellipse fill="#556b2f" stroke="#000000" cx="58" cy="-878.4651" rx="33.8824" ry="36.5405"/>
<text text-anchor="middle" x="58" y="-884.4651" font-family="Times,serif" font-size="20.00" fill="#000000">bias</text>
<text text-anchor="middle" x="58" y="-862.4651" font-family="Times,serif" font-size="20.00" fill="#000000">[3]</text>
</g>
<!-- 140225290756224&#45;&gt;140225290756336 -->
<g id="edge11" class="edge">
<title>140225290756224&#45;&gt;140225290756336</title>
<path fill="none" stroke="#000000" d="M82.9819,-852.697C95.0168,-840.2833 109.4023,-825.445 121.3884,-813.0817"/>
<polygon fill="#000000" stroke="#000000" points="124.0512,-815.3634 128.4989,-805.7474 119.0253,-810.4909 124.0512,-815.3634"/>
</g>
<!-- 140225290756560 -->
<g id="node17" class="node">
<title>140225290756560</title>
<ellipse fill="#556b2f" stroke="#000000" cx="186" cy="-573.3869" rx="49.4949" ry="36.5405"/>
<text text-anchor="middle" x="186" y="-579.3869" font-family="Times,serif" font-size="20.00" fill="#000000">weight</text>
<text text-anchor="middle" x="186" y="-557.3869" font-family="Times,serif" font-size="20.00" fill="#000000">[1, 6]</text>
</g>
<!-- 140225290757456 -->
<g id="node19" class="node">
<title>140225290757456</title>
<polygon fill="#ffa500" stroke="#000000" points="249,-481.8478 123,-481.8478 123,-445.8478 249,-445.8478 249,-481.8478"/>
<text text-anchor="middle" x="186" y="-458.8478" font-family="Times,serif" font-size="20.00" fill="#000000">TBackward&#45;3</text>
</g>
<!-- 140225290756560&#45;&gt;140225290757456 -->
<g id="edge13" class="edge">
<title>140225290756560&#45;&gt;140225290757456</title>
<path fill="none" stroke="#000000" d="M186,-536.6072C186,-522.0906 186,-505.6773 186,-492.1185"/>
<polygon fill="#000000" stroke="#000000" points="189.5001,-491.9474 186,-481.9474 182.5001,-491.9475 189.5001,-491.9474"/>
</g>
<!-- 140225290756728 -->
<g id="node18" class="node">
<title>140225290756728</title>
<ellipse fill="#556b2f" stroke="#000000" cx="71" cy="-463.8478" rx="33.8824" ry="36.5405"/>
<text text-anchor="middle" x="71" y="-469.8478" font-family="Times,serif" font-size="20.00" fill="#000000">bias</text>
<text text-anchor="middle" x="71" y="-447.8478" font-family="Times,serif" font-size="20.00" fill="#000000">[1]</text>
</g>
<!-- 140225290756728&#45;&gt;140225290757120 -->
<g id="edge14" class="edge">
<title>140225290756728&#45;&gt;140225290757120</title>
<path fill="none" stroke="#000000" d="M95.9819,-438.0796C108.0168,-425.666 122.4023,-410.8277 134.3884,-398.4644"/>
<polygon fill="#000000" stroke="#000000" points="137.0512,-400.7461 141.4989,-391.1301 132.0253,-395.8736 137.0512,-400.7461"/>
</g>
<!-- 140225290757456&#45;&gt;140225290757120 -->
<g id="edge15" class="edge">
<title>140225290757456&#45;&gt;140225290757120</title>
<path fill="none" stroke="#000000" d="M180.5361,-445.4792C176.7419,-432.7235 171.616,-415.4913 167.317,-401.0385"/>
<polygon fill="#000000" stroke="#000000" points="170.5695,-399.6967 164.3636,-391.1097 163.86,-401.6926 170.5695,-399.6967"/>
</g>
<!-- 140225290681704 -->
<g id="node20" class="node">
<title>140225290681704</title>
<ellipse fill="#add8e6" stroke="#000000" cx="522" cy="-878.4651" rx="42.3529" ry="36.5405"/>
<text text-anchor="middle" x="522" y="-884.4651" font-family="Times,serif" font-size="20.00" fill="#000000">Input</text>
<text text-anchor="middle" x="522" y="-862.4651" font-family="Times,serif" font-size="20.00" fill="#000000">[1, 3]</text>
</g>
<!-- 140225290681704&#45;&gt;140225290681984 -->
<g id="edge19" class="edge">
<title>140225290681704&#45;&gt;140225290681984</title>
<path fill="none" stroke="#000000" d="M489.2207,-854.6751C482.3602,-850.1175 475.0618,-845.5658 468,-841.6955 446.2748,-829.7889 421.3843,-818.6368 399.4949,-809.5943"/>
<polygon fill="#000000" stroke="#000000" points="400.5757,-806.2553 389.9943,-805.7229 397.9341,-812.7378 400.5757,-806.2553"/>
</g>
<!-- 140225290681704&#45;&gt;140225290756336 -->
<g id="edge20" class="edge">
<title>140225290681704&#45;&gt;140225290756336</title>
<path fill="none" stroke="#000000" d="M490.456,-853.668C483.3839,-849.0761 475.689,-844.7666 468,-841.6955 375.9896,-804.9453 345.6761,-822.305 248,-805.6955 247.2355,-805.5655 246.4678,-805.4348 245.6973,-805.3034"/>
<polygon fill="#000000" stroke="#000000" points="245.9929,-801.8031 235.5452,-803.5627 244.8098,-808.7024 245.9929,-801.8031"/>
</g>
</g>
</svg>
