<?xml version="1.0" encoding="UTF-8" standalone="no"?>
<!DOCTYPE svg PUBLIC "-//W3C//DTD SVG 1.1//EN"
 "http://www.w3.org/Graphics/SVG/1.1/DTD/svg11.dtd">
<!-- Generated by graphviz version 2.40.1 (20161225.0304)
 -->
<!-- Title: %3 Pages: 1 -->
<svg width="572pt" height="1187pt"
 viewBox="0.00 0.00 572.43 1186.77" xmlns="http://www.w3.org/2000/svg" xmlns:xlink="http://www.w3.org/1999/xlink">
<g id="graph0" class="graph" transform="scale(1 1) rotate(0) translate(4 1182.7737)">
<title>%3</title>
<polygon fill="#ffffff" stroke="transparent" points="-4,4 -4,-1182.7737 568.4264,-1182.7737 568.4264,4 -4,4"/>
<text text-anchor="middle" x="282.2132" y="-10.8" font-family="Times,serif" font-size="24.00" fill="#000000">Sample Net at depth = 2</text>
<g id="clust1" class="cluster">
<title>cluster_140059854703632</title>
<polygon fill="#ffffff" stroke="#000000" points="8,-127.5391 8,-1170.7737 472,-1170.7737 472,-127.5391 8,-127.5391"/>
<text text-anchor="middle" x="240" y="-1147.5737" font-family="Times,serif" font-size="24.00" fill="#000000">Sample Net</text>
</g>
<g id="clust2" class="cluster">
<title>cluster_140059854491920</title>
<polygon fill="#ffffff" stroke="#000000" points="229,-357.0782 229,-688.1564 457,-688.1564 457,-357.0782 229,-357.0782"/>
<text text-anchor="middle" x="343" y="-664.9564" font-family="Times,serif" font-size="24.00" fill="#000000">linear_3</text>
<text text-anchor="middle" x="343" y="-638.9564" font-family="Times,serif" font-size="24.00" fill="#000000">(Linear)</text>
</g>
<g id="clust3" class="cluster">
<title>cluster_140059854242832</title>
<polygon fill="#ffffff" stroke="#000000" points="236,-797.6955 236,-1128.7737 464,-1128.7737 464,-797.6955 236,-797.6955"/>
<text text-anchor="middle" x="350" y="-1105.5737" font-family="Times,serif" font-size="24.00" fill="#000000">linear_2</text>
<text text-anchor="middle" x="350" y="-1079.5737" font-family="Times,serif" font-size="24.00" fill="#000000">(Linear)</text>
</g>
<g id="clust4" class="cluster">
<title>cluster_140059854479056</title>
<polygon fill="#ffffff" stroke="#000000" points="240,-135.5391 240,-247.5391 415,-247.5391 415,-135.5391 240,-135.5391"/>
<text text-anchor="middle" x="327.5" y="-224.3391" font-family="Times,serif" font-size="24.00" fill="#000000">my_special_relu</text>
<text text-anchor="middle" x="327.5" y="-198.3391" font-family="Times,serif" font-size="24.00" fill="#000000">(ReLU)</text>
</g>
<g id="clust5" class="cluster">
<title>cluster_140059854713936</title>
<polygon fill="#ffffff" stroke="#000000" points="16,-797.6955 16,-1128.7737 228,-1128.7737 228,-797.6955 16,-797.6955"/>
<text text-anchor="middle" x="122" y="-1105.5737" font-family="Times,serif" font-size="24.00" fill="#000000">linear_1</text>
<text text-anchor="middle" x="122" y="-1079.5737" font-family="Times,serif" font-size="24.00" fill="#000000">(Linear)</text>
</g>
<!-- 140059854062800 -->
<g id="node1" class="node">
<title>140059854062800</title>
<polygon fill="#ffa500" stroke="#000000" points="399.5,-179.5391 254.5,-179.5391 254.5,-143.5391 399.5,-143.5391 399.5,-179.5391"/>
<text text-anchor="middle" x="327" y="-156.5391" font-family="Times,serif" font-size="20.00" fill="#000000">ReluBackward0</text>
</g>
<!-- 140059854062672 -->
<g id="node2" class="node">
<title>140059854062672</title>
<ellipse fill="#add8e6" stroke="#000000" cx="327" cy="-70.7696" rx="50.41" ry="36.5405"/>
<text text-anchor="middle" x="327" y="-76.7696" font-family="Times,serif" font-size="20.00" fill="#000000">Output</text>
<text text-anchor="middle" x="327" y="-54.7696" font-family="Times,serif" font-size="20.00" fill="#000000">[1, 1]</text>
</g>
<!-- 140059854062800&#45;&gt;140059854062672 -->
<g id="edge1" class="edge">
<title>140059854062800&#45;&gt;140059854062672</title>
<path fill="none" stroke="#000000" d="M327,-143.1705C327,-135.7935 327,-126.9191 327,-117.9511"/>
<polygon fill="#000000" stroke="#000000" points="330.5001,-117.8608 327,-107.8608 323.5001,-117.8609 330.5001,-117.8608"/>
</g>
<!-- 140059854061648 -->
<g id="node3" class="node">
<title>140059854061648</title>
<ellipse fill="#add8e6" stroke="#000000" cx="157" cy="-473.8478" rx="62.4516" ry="36.5405"/>
<text text-anchor="middle" x="157" y="-479.8478" font-family="Times,serif" font-size="20.00" fill="#000000">Tensor&#45;4</text>
<text text-anchor="middle" x="157" y="-457.8478" font-family="Times,serif" font-size="20.00" fill="#000000">[1, 6]</text>
</g>
<!-- 140059854062096 -->
<g id="node4" class="node">
<title>140059854062096</title>
<polygon fill="#ffa500" stroke="#000000" points="416.5,-401.0782 237.5,-401.0782 237.5,-365.0782 416.5,-365.0782 416.5,-401.0782"/>
<text text-anchor="middle" x="327" y="-378.0782" font-family="Times,serif" font-size="20.00" fill="#000000">AddmmBackward&#45;3</text>
</g>
<!-- 140059854061648&#45;&gt;140059854062096 -->
<g id="edge2" class="edge">
<title>140059854061648&#45;&gt;140059854062096</title>
<path fill="none" stroke="#000000" d="M203.059,-448.8715C210.3926,-444.9152 217.8999,-440.8772 225,-437.0782 244.1065,-426.8551 265.2735,-415.6324 283.3501,-406.079"/>
<polygon fill="#000000" stroke="#000000" points="285.2862,-409.0147 292.4941,-401.2496 282.017,-402.825 285.2862,-409.0147"/>
</g>
<!-- 140059854061904 -->
<g id="node5" class="node">
<title>140059854061904</title>
<ellipse fill="#add8e6" stroke="#000000" cx="327" cy="-292.3087" rx="62.4516" ry="36.5405"/>
<text text-anchor="middle" x="327" y="-298.3087" font-family="Times,serif" font-size="20.00" fill="#000000">Tensor&#45;5</text>
<text text-anchor="middle" x="327" y="-276.3087" font-family="Times,serif" font-size="20.00" fill="#000000">[1, 1]</text>
</g>
<!-- 140059854062096&#45;&gt;140059854061904 -->
<g id="edge4" class="edge">
<title>140059854062096&#45;&gt;140059854061904</title>
<path fill="none" stroke="#000000" d="M327,-364.7096C327,-357.3326 327,-348.4582 327,-339.4902"/>
<polygon fill="#000000" stroke="#000000" points="330.5001,-339.3999 327,-329.4 323.5001,-339.4 330.5001,-339.3999"/>
</g>
<!-- 140059854061904&#45;&gt;140059854062800 -->
<g id="edge3" class="edge">
<title>140059854061904&#45;&gt;140059854062800</title>
<path fill="none" stroke="#000000" d="M327,-255.534C327,-234.7241 327,-209.0979 327,-189.8619"/>
<polygon fill="#000000" stroke="#000000" points="330.5001,-189.6319 327,-179.6319 323.5001,-189.6319 330.5001,-189.6319"/>
</g>
<!-- 140059854002384 -->
<g id="node6" class="node">
<title>140059854002384</title>
<ellipse fill="#add8e6" stroke="#000000" cx="144" cy="-732.926" rx="62.4516" ry="36.5405"/>
<text text-anchor="middle" x="144" y="-738.926" font-family="Times,serif" font-size="20.00" fill="#000000">Tensor&#45;2</text>
<text text-anchor="middle" x="144" y="-716.926" font-family="Times,serif" font-size="20.00" fill="#000000">[1, 3]</text>
</g>
<!-- 140059854004112 -->
<g id="node11" class="node">
<title>140059854004112</title>
<polygon fill="#ffa500" stroke="#000000" points="219.5,-601.3869 94.5,-601.3869 94.5,-565.3869 219.5,-565.3869 219.5,-601.3869"/>
<text text-anchor="middle" x="157" y="-578.3869" font-family="Times,serif" font-size="20.00" fill="#000000">CatBackward</text>
</g>
<!-- 140059854002384&#45;&gt;140059854004112 -->
<g id="edge16" class="edge">
<title>140059854002384&#45;&gt;140059854004112</title>
<path fill="none" stroke="#000000" d="M147.2135,-695.9612C149.4695,-670.0102 152.4423,-635.8139 154.517,-611.9486"/>
<polygon fill="#000000" stroke="#000000" points="158.022,-612.0427 155.4013,-601.7771 151.0483,-611.4364 158.022,-612.0427"/>
</g>
<!-- 140059854003984 -->
<g id="node7" class="node">
<title>140059854003984</title>
<ellipse fill="#556b2f" stroke="#000000" cx="386" cy="-583.3869" rx="49.4949" ry="36.5405"/>
<text text-anchor="middle" x="386" y="-589.3869" font-family="Times,serif" font-size="20.00" fill="#000000">weight</text>
<text text-anchor="middle" x="386" y="-567.3869" font-family="Times,serif" font-size="20.00" fill="#000000">[1, 6]</text>
</g>
<!-- 140059854062416 -->
<g id="node9" class="node">
<title>140059854062416</title>
<polygon fill="#ffa500" stroke="#000000" points="449,-491.8478 323,-491.8478 323,-455.8478 449,-455.8478 449,-491.8478"/>
<text text-anchor="middle" x="386" y="-468.8478" font-family="Times,serif" font-size="20.00" fill="#000000">TBackward&#45;3</text>
</g>
<!-- 140059854003984&#45;&gt;140059854062416 -->
<g id="edge5" class="edge">
<title>140059854003984&#45;&gt;140059854062416</title>
<path fill="none" stroke="#000000" d="M386,-546.6072C386,-532.0906 386,-515.6773 386,-502.1185"/>
<polygon fill="#000000" stroke="#000000" points="389.5001,-501.9474 386,-491.9474 382.5001,-501.9475 389.5001,-501.9474"/>
</g>
<!-- 140059854004048 -->
<g id="node8" class="node">
<title>140059854004048</title>
<ellipse fill="#556b2f" stroke="#000000" cx="271" cy="-473.8478" rx="33.8824" ry="36.5405"/>
<text text-anchor="middle" x="271" y="-479.8478" font-family="Times,serif" font-size="20.00" fill="#000000">bias</text>
<text text-anchor="middle" x="271" y="-457.8478" font-family="Times,serif" font-size="20.00" fill="#000000">[1]</text>
</g>
<!-- 140059854004048&#45;&gt;140059854062096 -->
<g id="edge6" class="edge">
<title>140059854004048&#45;&gt;140059854062096</title>
<path fill="none" stroke="#000000" d="M289.959,-443.1173C296.5853,-432.377 303.9682,-420.41 310.3883,-410.0038"/>
<polygon fill="#000000" stroke="#000000" points="313.4672,-411.6792 315.7391,-401.3308 307.5097,-408.0037 313.4672,-411.6792"/>
</g>
<!-- 140059854062416&#45;&gt;140059854062096 -->
<g id="edge7" class="edge">
<title>140059854062416&#45;&gt;140059854062096</title>
<path fill="none" stroke="#000000" d="M374.0605,-455.4792C365.5278,-442.352 353.9134,-424.4837 344.358,-409.7829"/>
<polygon fill="#000000" stroke="#000000" points="347.1049,-407.5867 338.7204,-401.1097 341.2358,-411.4016 347.1049,-407.5867"/>
</g>
<!-- 140059854003216 -->
<g id="node10" class="node">
<title>140059854003216</title>
<ellipse fill="#add8e6" stroke="#000000" cx="313" cy="-732.926" rx="62.4516" ry="36.5405"/>
<text text-anchor="middle" x="313" y="-738.926" font-family="Times,serif" font-size="20.00" fill="#000000">Tensor&#45;3</text>
<text text-anchor="middle" x="313" y="-716.926" font-family="Times,serif" font-size="20.00" fill="#000000">[1, 3]</text>
</g>
<!-- 140059854003216&#45;&gt;140059854004112 -->
<g id="edge17" class="edge">
<title>140059854003216&#45;&gt;140059854004112</title>
<path fill="none" stroke="#000000" d="M261.2405,-712.263C248.5426,-705.7266 235.5746,-697.6744 225,-688.1564 200.7434,-666.3237 181.5054,-633.9515 169.7687,-610.9777"/>
<polygon fill="#000000" stroke="#000000" points="172.7804,-609.1725 165.2052,-601.7653 166.5078,-612.2797 172.7804,-609.1725"/>
</g>
<!-- 140059854004112&#45;&gt;140059854061648 -->
<g id="edge18" class="edge">
<title>140059854004112&#45;&gt;140059854061648</title>
<path fill="none" stroke="#000000" d="M157,-565.2987C157,-553.2357 157,-536.7791 157,-521.1492"/>
<polygon fill="#000000" stroke="#000000" points="160.5001,-521.0521 157,-511.0521 153.5001,-521.0521 160.5001,-521.0521"/>
</g>
<!-- 140059854003408 -->
<g id="node12" class="node">
<title>140059854003408</title>
<polygon fill="#ffa500" stroke="#000000" points="423.5,-841.6955 244.5,-841.6955 244.5,-805.6955 423.5,-805.6955 423.5,-841.6955"/>
<text text-anchor="middle" x="334" y="-818.6955" font-family="Times,serif" font-size="20.00" fill="#000000">AddmmBackward&#45;2</text>
</g>
<!-- 140059854003408&#45;&gt;140059854003216 -->
<g id="edge8" class="edge">
<title>140059854003408&#45;&gt;140059854003216</title>
<path fill="none" stroke="#000000" d="M329.7503,-805.327C328.0077,-797.7945 325.9038,-788.701 323.7845,-779.5406"/>
<polygon fill="#000000" stroke="#000000" points="327.1592,-778.5988 321.4952,-769.6451 320.3393,-780.1767 327.1592,-778.5988"/>
</g>
<!-- 140059854003024 -->
<g id="node13" class="node">
<title>140059854003024</title>
<ellipse fill="#556b2f" stroke="#000000" cx="393" cy="-1024.0042" rx="49.4949" ry="36.5405"/>
<text text-anchor="middle" x="393" y="-1030.0042" font-family="Times,serif" font-size="20.00" fill="#000000">weight</text>
<text text-anchor="middle" x="393" y="-1008.0042" font-family="Times,serif" font-size="20.00" fill="#000000">[3, 3]</text>
</g>
<!-- 140059854003728 -->
<g id="node14" class="node">
<title>140059854003728</title>
<polygon fill="#ffa500" stroke="#000000" points="456,-932.4651 330,-932.4651 330,-896.4651 456,-896.4651 456,-932.4651"/>
<text text-anchor="middle" x="393" y="-909.4651" font-family="Times,serif" font-size="20.00" fill="#000000">TBackward&#45;2</text>
</g>
<!-- 140059854003024&#45;&gt;140059854003728 -->
<g id="edge9" class="edge">
<title>140059854003024&#45;&gt;140059854003728</title>
<path fill="none" stroke="#000000" d="M393,-987.2245C393,-972.7079 393,-956.2946 393,-942.7358"/>
<polygon fill="#000000" stroke="#000000" points="396.5001,-942.5647 393,-932.5647 389.5001,-942.5648 396.5001,-942.5647"/>
</g>
<!-- 140059854003728&#45;&gt;140059854003408 -->
<g id="edge10" class="edge">
<title>140059854003728&#45;&gt;140059854003408</title>
<path fill="none" stroke="#000000" d="M381.0605,-896.0965C372.5278,-882.9693 360.9134,-865.101 351.358,-850.4002"/>
<polygon fill="#000000" stroke="#000000" points="354.1049,-848.204 345.7204,-841.727 348.2358,-852.0189 354.1049,-848.204"/>
</g>
<!-- 140059854003088 -->
<g id="node15" class="node">
<title>140059854003088</title>
<ellipse fill="#556b2f" stroke="#000000" cx="278" cy="-914.4651" rx="33.8824" ry="36.5405"/>
<text text-anchor="middle" x="278" y="-920.4651" font-family="Times,serif" font-size="20.00" fill="#000000">bias</text>
<text text-anchor="middle" x="278" y="-898.4651" font-family="Times,serif" font-size="20.00" fill="#000000">[3]</text>
</g>
<!-- 140059854003088&#45;&gt;140059854003408 -->
<g id="edge11" class="edge">
<title>140059854003088&#45;&gt;140059854003408</title>
<path fill="none" stroke="#000000" d="M296.959,-883.7346C303.5853,-872.9943 310.9682,-861.0274 317.3883,-850.6211"/>
<polygon fill="#000000" stroke="#000000" points="320.4672,-852.2965 322.7391,-841.9481 314.5097,-848.621 320.4672,-852.2965"/>
</g>
<!-- 140059854002768 -->
<g id="node16" class="node">
<title>140059854002768</title>
<polygon fill="#ffa500" stroke="#000000" points="219.5,-841.6955 56.5,-841.6955 56.5,-805.6955 219.5,-805.6955 219.5,-841.6955"/>
<text text-anchor="middle" x="138" y="-818.6955" font-family="Times,serif" font-size="20.00" fill="#000000">AddmmBackward</text>
</g>
<!-- 140059854002768&#45;&gt;140059854002384 -->
<g id="edge12" class="edge">
<title>140059854002768&#45;&gt;140059854002384</title>
<path fill="none" stroke="#000000" d="M139.2142,-805.327C139.7018,-797.9499 140.2884,-789.0755 140.8812,-780.1075"/>
<polygon fill="#000000" stroke="#000000" points="144.3809,-780.2264 141.5482,-770.0173 137.3962,-779.7646 144.3809,-780.2264"/>
</g>
<!-- 140059854002128 -->
<g id="node17" class="node">
<title>140059854002128</title>
<ellipse fill="#556b2f" stroke="#000000" cx="165" cy="-1024.0042" rx="49.4949" ry="36.5405"/>
<text text-anchor="middle" x="165" y="-1030.0042" font-family="Times,serif" font-size="20.00" fill="#000000">weight</text>
<text text-anchor="middle" x="165" y="-1008.0042" font-family="Times,serif" font-size="20.00" fill="#000000">[3, 3]</text>
</g>
<!-- 140059854002576 -->
<g id="node19" class="node">
<title>140059854002576</title>
<polygon fill="#ffa500" stroke="#000000" points="220,-932.4651 110,-932.4651 110,-896.4651 220,-896.4651 220,-932.4651"/>
<text text-anchor="middle" x="165" y="-909.4651" font-family="Times,serif" font-size="20.00" fill="#000000">TBackward</text>
</g>
<!-- 140059854002128&#45;&gt;140059854002576 -->
<g id="edge13" class="edge">
<title>140059854002128&#45;&gt;140059854002576</title>
<path fill="none" stroke="#000000" d="M165,-987.2245C165,-972.7079 165,-956.2946 165,-942.7358"/>
<polygon fill="#000000" stroke="#000000" points="168.5001,-942.5647 165,-932.5647 161.5001,-942.5648 168.5001,-942.5647"/>
</g>
<!-- 140059854002000 -->
<g id="node18" class="node">
<title>140059854002000</title>
<ellipse fill="#556b2f" stroke="#000000" cx="58" cy="-914.4651" rx="33.8824" ry="36.5405"/>
<text text-anchor="middle" x="58" y="-920.4651" font-family="Times,serif" font-size="20.00" fill="#000000">bias</text>
<text text-anchor="middle" x="58" y="-898.4651" font-family="Times,serif" font-size="20.00" fill="#000000">[3]</text>
</g>
<!-- 140059854002000&#45;&gt;140059854002768 -->
<g id="edge14" class="edge">
<title>140059854002000&#45;&gt;140059854002768</title>
<path fill="none" stroke="#000000" d="M81.5699,-887.7222C92.1303,-875.7402 104.5399,-861.66 115.0287,-849.7592"/>
<polygon fill="#000000" stroke="#000000" points="117.9508,-851.7372 121.9371,-841.9208 112.6993,-847.1087 117.9508,-851.7372"/>
</g>
<!-- 140059854002576&#45;&gt;140059854002768 -->
<g id="edge15" class="edge">
<title>140059854002576&#45;&gt;140059854002768</title>
<path fill="none" stroke="#000000" d="M159.5361,-896.0965C155.7419,-883.3408 150.616,-866.1086 146.317,-851.6559"/>
<polygon fill="#000000" stroke="#000000" points="149.5695,-850.3141 143.3636,-841.727 142.86,-852.3099 149.5695,-850.3141"/>
</g>
<!-- 140059854703568 -->
<g id="node20" class="node">
<title>140059854703568</title>
<ellipse fill="#add8e6" stroke="#000000" cx="522" cy="-914.4651" rx="42.3529" ry="36.5405"/>
<text text-anchor="middle" x="522" y="-920.4651" font-family="Times,serif" font-size="20.00" fill="#000000">Input</text>
<text text-anchor="middle" x="522" y="-898.4651" font-family="Times,serif" font-size="20.00" fill="#000000">[1, 3]</text>
</g>
<!-- 140059854703568&#45;&gt;140059854003408 -->
<g id="edge19" class="edge">
<title>140059854703568&#45;&gt;140059854003408</title>
<path fill="none" stroke="#000000" d="M489.576,-890.7463C482.6267,-886.1333 475.2036,-881.5419 468,-877.6955 445.0536,-865.4432 418.7069,-854.2556 395.4809,-845.2809"/>
<polygon fill="#000000" stroke="#000000" points="396.6666,-841.9873 386.0756,-841.7004 394.1761,-848.5293 396.6666,-841.9873"/>
</g>
<!-- 140059854703568&#45;&gt;140059854002768 -->
<g id="edge20" class="edge">
<title>140059854703568&#45;&gt;140059854002768</title>
<path fill="none" stroke="#000000" d="M490.4813,-889.6042C483.4075,-885.0166 475.7055,-880.725 468,-877.6955 369.2551,-838.8737 336.5676,-859.6762 232,-841.6955 231.2477,-841.5662 230.4922,-841.4357 229.7338,-841.3041"/>
<polygon fill="#000000" stroke="#000000" points="230.1956,-837.8316 219.7394,-839.54 228.9788,-844.725 230.1956,-837.8316"/>
</g>
</g>
</svg>
