<?xml version="1.0" encoding="UTF-8" standalone="no"?>
<!DOCTYPE svg PUBLIC "-//W3C//DTD SVG 1.1//EN"
 "http://www.w3.org/Graphics/SVG/1.1/DTD/svg11.dtd">
<!-- Generated by graphviz version 2.40.1 (20161225.0304)
 -->
<!-- Title: %3 Pages: 1 -->
<svg width="306pt" height="1013pt"
 viewBox="0.00 0.00 306.00 1013.23" xmlns="http://www.w3.org/2000/svg" xmlns:xlink="http://www.w3.org/1999/xlink">
<g id="graph0" class="graph" transform="scale(1 1) rotate(0) translate(4 1009.2346)">
<title>%3</title>
<polygon fill="#ffffff" stroke="transparent" points="-4,4 -4,-1009.2346 302,-1009.2346 302,4 -4,4"/>
<text text-anchor="middle" x="149" y="-10.8" font-family="Times,serif" font-size="24.00" fill="#000000">Sample Net at depth=1</text>
<g id="clust1" class="cluster">
<title>cluster_140119011795016</title>
<polygon fill="#ffffff" stroke="#000000" points="8,-135.5391 8,-923.6955 290,-923.6955 290,-135.5391 8,-135.5391"/>
<text text-anchor="middle" x="149" y="-900.4955" font-family="Times,serif" font-size="24.00" fill="#000000">Sample Net</text>
</g>
<!-- 140119011939944 -->
<g id="node1" class="node">
<title>140119011939944</title>
<ellipse fill="#add8e6" stroke="#000000" cx="149" cy="-180.3087" rx="62.4516" ry="36.5405"/>
<text text-anchor="middle" x="149" y="-186.3087" font-family="Times,serif" font-size="20.00" fill="#000000">Tensor&#45;6</text>
<text text-anchor="middle" x="149" y="-164.3087" font-family="Times,serif" font-size="20.00" fill="#000000">[1, 1]</text>
</g>
<!-- 140119011940112 -->
<g id="node2" class="node">
<title>140119011940112</title>
<ellipse fill="#add8e6" stroke="#000000" cx="149" cy="-70.7696" rx="50.41" ry="36.5405"/>
<text text-anchor="middle" x="149" y="-76.7696" font-family="Times,serif" font-size="20.00" fill="#000000">Output</text>
<text text-anchor="middle" x="149" y="-54.7696" font-family="Times,serif" font-size="20.00" fill="#000000">[1, 1]</text>
</g>
<!-- 140119011939944&#45;&gt;140119011940112 -->
<g id="edge1" class="edge">
<title>140119011939944&#45;&gt;140119011940112</title>
<path fill="none" stroke="#000000" d="M149,-143.529C149,-135.3103 149,-126.4835 149,-117.911"/>
<polygon fill="#000000" stroke="#000000" points="152.5001,-117.6386 149,-107.6386 145.5001,-117.6386 152.5001,-117.6386"/>
</g>
<!-- 140119011939440 -->
<g id="node3" class="node">
<title>140119011939440</title>
<ellipse fill="#add8e6" stroke="#000000" cx="149" cy="-377.8478" rx="62.4516" ry="36.5405"/>
<text text-anchor="middle" x="149" y="-383.8478" font-family="Times,serif" font-size="20.00" fill="#000000">Tensor&#45;5</text>
<text text-anchor="middle" x="149" y="-361.8478" font-family="Times,serif" font-size="20.00" fill="#000000">[1, 1]</text>
</g>
<!-- 140119011601488 -->
<g id="node11" class="node">
<title>140119011601488</title>
<polygon fill="#d3d3d3" stroke="#000000" points="222.5,-305.0782 75.5,-305.0782 75.5,-253.0782 222.5,-253.0782 222.5,-305.0782"/>
<text text-anchor="middle" x="149" y="-285.0782" font-family="Times,serif" font-size="20.00" fill="#000000">my_special_relu</text>
<text text-anchor="middle" x="149" y="-263.0782" font-family="Times,serif" font-size="20.00" fill="#000000">(ReLU)</text>
</g>
<!-- 140119011939440&#45;&gt;140119011601488 -->
<g id="edge2" class="edge">
<title>140119011939440&#45;&gt;140119011601488</title>
<path fill="none" stroke="#000000" d="M149,-341.0696C149,-332.6626 149,-323.7333 149,-315.3478"/>
<polygon fill="#000000" stroke="#000000" points="152.5001,-315.0973 149,-305.0974 145.5001,-315.0974 152.5001,-315.0973"/>
</g>
<!-- 140119011939272 -->
<g id="node4" class="node">
<title>140119011939272</title>
<ellipse fill="#add8e6" stroke="#000000" cx="149" cy="-575.3869" rx="62.4516" ry="36.5405"/>
<text text-anchor="middle" x="149" y="-581.3869" font-family="Times,serif" font-size="20.00" fill="#000000">Tensor&#45;4</text>
<text text-anchor="middle" x="149" y="-559.3869" font-family="Times,serif" font-size="20.00" fill="#000000">[1, 6]</text>
</g>
<!-- 140119011601320 -->
<g id="node9" class="node">
<title>140119011601320</title>
<polygon fill="#d3d3d3" stroke="#000000" points="190,-502.6173 108,-502.6173 108,-450.6173 190,-450.6173 190,-502.6173"/>
<text text-anchor="middle" x="149" y="-482.6173" font-family="Times,serif" font-size="20.00" fill="#000000">linear_3</text>
<text text-anchor="middle" x="149" y="-460.6173" font-family="Times,serif" font-size="20.00" fill="#000000">(Linear)</text>
</g>
<!-- 140119011939272&#45;&gt;140119011601320 -->
<g id="edge3" class="edge">
<title>140119011939272&#45;&gt;140119011601320</title>
<path fill="none" stroke="#000000" d="M149,-538.6087C149,-530.2017 149,-521.2724 149,-512.8869"/>
<polygon fill="#000000" stroke="#000000" points="152.5001,-512.6364 149,-502.6365 145.5001,-512.6365 152.5001,-512.6364"/>
</g>
<!-- 140119011938656 -->
<g id="node5" class="node">
<title>140119011938656</title>
<ellipse fill="#add8e6" stroke="#000000" cx="220" cy="-756.926" rx="62.4516" ry="36.5405"/>
<text text-anchor="middle" x="220" y="-762.926" font-family="Times,serif" font-size="20.00" fill="#000000">Tensor&#45;3</text>
<text text-anchor="middle" x="220" y="-740.926" font-family="Times,serif" font-size="20.00" fill="#000000">[1, 3]</text>
</g>
<!-- 140119011939160 -->
<g id="node7" class="node">
<title>140119011939160</title>
<polygon fill="#ffa500" stroke="#000000" points="211.5,-684.1564 86.5,-684.1564 86.5,-648.1564 211.5,-648.1564 211.5,-684.1564"/>
<text text-anchor="middle" x="149" y="-661.1564" font-family="Times,serif" font-size="20.00" fill="#000000">CatBackward</text>
</g>
<!-- 140119011938656&#45;&gt;140119011939160 -->
<g id="edge4" class="edge">
<title>140119011938656&#45;&gt;140119011939160</title>
<path fill="none" stroke="#000000" d="M193.7639,-723.3846C185.7591,-713.1509 177.0787,-702.0534 169.5113,-692.3789"/>
<polygon fill="#000000" stroke="#000000" points="172.1106,-690.0211 163.1926,-684.3009 166.5969,-694.3339 172.1106,-690.0211"/>
</g>
<!-- 140119011600648 -->
<g id="node6" class="node">
<title>140119011600648</title>
<polygon fill="#d3d3d3" stroke="#000000" points="261,-881.6955 179,-881.6955 179,-829.6955 261,-829.6955 261,-881.6955"/>
<text text-anchor="middle" x="220" y="-861.6955" font-family="Times,serif" font-size="20.00" fill="#000000">linear_2</text>
<text text-anchor="middle" x="220" y="-839.6955" font-family="Times,serif" font-size="20.00" fill="#000000">(Linear)</text>
</g>
<!-- 140119011600648&#45;&gt;140119011938656 -->
<g id="edge5" class="edge">
<title>140119011600648&#45;&gt;140119011938656</title>
<path fill="none" stroke="#000000" d="M220,-829.4864C220,-821.6818 220,-812.8785 220,-804.1645"/>
<polygon fill="#000000" stroke="#000000" points="223.5001,-804.0411 220,-794.0411 216.5001,-804.0412 223.5001,-804.0411"/>
</g>
<!-- 140119011939160&#45;&gt;140119011939272 -->
<g id="edge6" class="edge">
<title>140119011939160&#45;&gt;140119011939272</title>
<path fill="none" stroke="#000000" d="M149,-647.7878C149,-640.4108 149,-631.5364 149,-622.5684"/>
<polygon fill="#000000" stroke="#000000" points="152.5001,-622.4781 149,-612.4782 145.5001,-622.4782 152.5001,-622.4781"/>
</g>
<!-- 140119011602104 -->
<g id="node8" class="node">
<title>140119011602104</title>
<ellipse fill="#add8e6" stroke="#000000" cx="78" cy="-756.926" rx="62.4516" ry="36.5405"/>
<text text-anchor="middle" x="78" y="-762.926" font-family="Times,serif" font-size="20.00" fill="#000000">Tensor&#45;2</text>
<text text-anchor="middle" x="78" y="-740.926" font-family="Times,serif" font-size="20.00" fill="#000000">[1, 3]</text>
</g>
<!-- 140119011602104&#45;&gt;140119011939160 -->
<g id="edge7" class="edge">
<title>140119011602104&#45;&gt;140119011939160</title>
<path fill="none" stroke="#000000" d="M104.2361,-723.3846C112.2409,-713.1509 120.9213,-702.0534 128.4887,-692.3789"/>
<polygon fill="#000000" stroke="#000000" points="131.4031,-694.3339 134.8074,-684.3009 125.8894,-690.0211 131.4031,-694.3339"/>
</g>
<!-- 140119011601320&#45;&gt;140119011939440 -->
<g id="edge8" class="edge">
<title>140119011601320&#45;&gt;140119011939440</title>
<path fill="none" stroke="#000000" d="M149,-450.4082C149,-442.6036 149,-433.8003 149,-425.0863"/>
<polygon fill="#000000" stroke="#000000" points="152.5001,-424.9629 149,-414.9629 145.5001,-424.963 152.5001,-424.9629"/>
</g>
<!-- 140119011599304 -->
<g id="node10" class="node">
<title>140119011599304</title>
<polygon fill="#d3d3d3" stroke="#000000" points="119,-881.6955 37,-881.6955 37,-829.6955 119,-829.6955 119,-881.6955"/>
<text text-anchor="middle" x="78" y="-861.6955" font-family="Times,serif" font-size="20.00" fill="#000000">linear_1</text>
<text text-anchor="middle" x="78" y="-839.6955" font-family="Times,serif" font-size="20.00" fill="#000000">(Linear)</text>
</g>
<!-- 140119011599304&#45;&gt;140119011602104 -->
<g id="edge9" class="edge">
<title>140119011599304&#45;&gt;140119011602104</title>
<path fill="none" stroke="#000000" d="M78,-829.4864C78,-821.6818 78,-812.8785 78,-804.1645"/>
<polygon fill="#000000" stroke="#000000" points="81.5001,-804.0411 78,-794.0411 74.5001,-804.0412 81.5001,-804.0411"/>
</g>
<!-- 140119011601488&#45;&gt;140119011939944 -->
<g id="edge10" class="edge">
<title>140119011601488&#45;&gt;140119011939944</title>
<path fill="none" stroke="#000000" d="M149,-252.8691C149,-245.0645 149,-236.2612 149,-227.5472"/>
<polygon fill="#000000" stroke="#000000" points="152.5001,-227.4238 149,-217.4238 145.5001,-227.4239 152.5001,-227.4238"/>
</g>
<!-- 140119011601656 -->
<g id="node12" class="node">
<title>140119011601656</title>
<ellipse fill="#add8e6" stroke="#000000" cx="149" cy="-968.4651" rx="42.3529" ry="36.5405"/>
<text text-anchor="middle" x="149" y="-974.4651" font-family="Times,serif" font-size="20.00" fill="#000000">Input</text>
<text text-anchor="middle" x="149" y="-952.4651" font-family="Times,serif" font-size="20.00" fill="#000000">[1, 3]</text>
</g>
<!-- 140119011601656&#45;&gt;140119011600648 -->
<g id="edge12" class="edge">
<title>140119011601656&#45;&gt;140119011600648</title>
<path fill="none" stroke="#000000" d="M169.3458,-936.1499C178.3044,-921.9208 188.8482,-905.1741 197.9899,-890.6543"/>
<polygon fill="#000000" stroke="#000000" points="201.1079,-892.271 203.474,-881.9438 195.1842,-888.5414 201.1079,-892.271"/>
</g>
<!-- 140119011601656&#45;&gt;140119011599304 -->
<g id="edge11" class="edge">
<title>140119011601656&#45;&gt;140119011599304</title>
<path fill="none" stroke="#000000" d="M128.6542,-936.1499C119.6956,-921.9208 109.1518,-905.1741 100.0101,-890.6543"/>
<polygon fill="#000000" stroke="#000000" points="102.8158,-888.5414 94.526,-881.9438 96.8921,-892.271 102.8158,-888.5414"/>
</g>
</g>
</svg>
