<?xml version="1.0" encoding="UTF-8" standalone="no"?>
<!DOCTYPE svg PUBLIC "-//W3C//DTD SVG 1.1//EN"
 "http://www.w3.org/Graphics/SVG/1.1/DTD/svg11.dtd">
<!-- Generated by graphviz version 2.40.1 (20161225.0304)
 -->
<!-- Title: %3 Pages: 1 -->
<svg width="572pt" height="1109pt"
 viewBox="0.00 0.00 572.43 1108.77" xmlns="http://www.w3.org/2000/svg" xmlns:xlink="http://www.w3.org/1999/xlink">
<g id="graph0" class="graph" transform="scale(1 1) rotate(0) translate(4 1104.7737)">
<title>%3</title>
<polygon fill="#ffffff" stroke="transparent" points="-4,4 -4,-1104.7737 568.4264,-1104.7737 568.4264,4 -4,4"/>
<text text-anchor="middle" x="282.2132" y="-10.8" font-family="Times,serif" font-size="24.00" fill="#000000">Sample Net at depth=2</text>
<g id="clust1" class="cluster">
<title>cluster_139868166472312</title>
<polygon fill="#ffffff" stroke="#000000" points="8,-127.5391 8,-1092.7737 472,-1092.7737 472,-127.5391 8,-127.5391"/>
<text text-anchor="middle" x="240" y="-1069.5737" font-family="Times,serif" font-size="24.00" fill="#000000">Sample Net</text>
</g>
<g id="clust2" class="cluster">
<title>cluster_139868166475728</title>
<polygon fill="#ffffff" stroke="#000000" points="252,-745.6955 252,-1050.7737 464,-1050.7737 464,-745.6955 252,-745.6955"/>
<text text-anchor="middle" x="358" y="-1027.5737" font-family="Times,serif" font-size="24.00" fill="#000000">linear_1</text>
</g>
<g id="clust3" class="cluster">
<title>cluster_139868165729192</title>
<polygon fill="#ffffff" stroke="#000000" points="16,-745.6955 16,-1050.7737 244,-1050.7737 244,-745.6955 16,-745.6955"/>
<text text-anchor="middle" x="130" y="-1027.5737" font-family="Times,serif" font-size="24.00" fill="#000000">linear_2</text>
</g>
<g id="clust4" class="cluster">
<title>cluster_139868165729360</title>
<polygon fill="#ffffff" stroke="#000000" points="29,-331.0782 29,-636.1564 257,-636.1564 257,-331.0782 29,-331.0782"/>
<text text-anchor="middle" x="143" y="-612.9564" font-family="Times,serif" font-size="24.00" fill="#000000">linear_3</text>
</g>
<g id="clust5" class="cluster">
<title>cluster_139868165729528</title>
<polygon fill="#ffffff" stroke="#000000" points="72,-135.5391 72,-221.5391 247,-221.5391 247,-135.5391 72,-135.5391"/>
<text text-anchor="middle" x="159.5" y="-198.3391" font-family="Times,serif" font-size="24.00" fill="#000000">my_special_relu</text>
</g>
<!-- 139868166149624 -->
<g id="node1" class="node">
<title>139868166149624</title>
<polygon fill="#ffa500" stroke="#000000" points="231.5,-179.5391 86.5,-179.5391 86.5,-143.5391 231.5,-143.5391 231.5,-179.5391"/>
<text text-anchor="middle" x="159" y="-156.5391" font-family="Times,serif" font-size="20.00" fill="#000000">ReluBackward0</text>
</g>
<!-- 139868166149680 -->
<g id="node2" class="node">
<title>139868166149680</title>
<ellipse fill="#add8e6" stroke="#000000" cx="159" cy="-70.7696" rx="50.41" ry="36.5405"/>
<text text-anchor="middle" x="159" y="-76.7696" font-family="Times,serif" font-size="20.00" fill="#000000">Output</text>
<text text-anchor="middle" x="159" y="-54.7696" font-family="Times,serif" font-size="20.00" fill="#000000">[1, 1]</text>
</g>
<!-- 139868166149624&#45;&gt;139868166149680 -->
<g id="edge1" class="edge">
<title>139868166149624&#45;&gt;139868166149680</title>
<path fill="none" stroke="#000000" d="M159,-143.1705C159,-135.7935 159,-126.9191 159,-117.9511"/>
<polygon fill="#000000" stroke="#000000" points="162.5001,-117.8608 159,-107.8608 155.5001,-117.8609 162.5001,-117.8608"/>
</g>
<!-- 139868166149120 -->
<g id="node3" class="node">
<title>139868166149120</title>
<ellipse fill="#add8e6" stroke="#000000" cx="329" cy="-447.8478" rx="62.4516" ry="36.5405"/>
<text text-anchor="middle" x="329" y="-453.8478" font-family="Times,serif" font-size="20.00" fill="#000000">Tensor&#45;4</text>
<text text-anchor="middle" x="329" y="-431.8478" font-family="Times,serif" font-size="20.00" fill="#000000">[1, 6]</text>
</g>
<!-- 139868166149176 -->
<g id="node4" class="node">
<title>139868166149176</title>
<polygon fill="#ffa500" stroke="#000000" points="248.5,-375.0782 69.5,-375.0782 69.5,-339.0782 248.5,-339.0782 248.5,-375.0782"/>
<text text-anchor="middle" x="159" y="-352.0782" font-family="Times,serif" font-size="20.00" fill="#000000">AddmmBackward&#45;3</text>
</g>
<!-- 139868166149120&#45;&gt;139868166149176 -->
<g id="edge2" class="edge">
<title>139868166149120&#45;&gt;139868166149176</title>
<path fill="none" stroke="#000000" d="M282.941,-422.8715C275.6074,-418.9152 268.1001,-414.8772 261,-411.0782 241.8935,-400.8551 220.7265,-389.6324 202.6499,-380.079"/>
<polygon fill="#000000" stroke="#000000" points="203.983,-376.825 193.5059,-375.2496 200.7138,-383.0147 203.983,-376.825"/>
</g>
<!-- 139868166149232 -->
<g id="node5" class="node">
<title>139868166149232</title>
<ellipse fill="#add8e6" stroke="#000000" cx="159" cy="-266.3087" rx="62.4516" ry="36.5405"/>
<text text-anchor="middle" x="159" y="-272.3087" font-family="Times,serif" font-size="20.00" fill="#000000">Tensor&#45;5</text>
<text text-anchor="middle" x="159" y="-250.3087" font-family="Times,serif" font-size="20.00" fill="#000000">[1, 1]</text>
</g>
<!-- 139868166149176&#45;&gt;139868166149232 -->
<g id="edge12" class="edge">
<title>139868166149176&#45;&gt;139868166149232</title>
<path fill="none" stroke="#000000" d="M159,-338.7096C159,-331.3326 159,-322.4582 159,-313.4902"/>
<polygon fill="#000000" stroke="#000000" points="162.5001,-313.3999 159,-303.4 155.5001,-313.4 162.5001,-313.3999"/>
</g>
<!-- 139868166149232&#45;&gt;139868166149624 -->
<g id="edge3" class="edge">
<title>139868166149232&#45;&gt;139868166149624</title>
<path fill="none" stroke="#000000" d="M159,-229.3708C159,-216.339 159,-201.9064 159,-189.7159"/>
<polygon fill="#000000" stroke="#000000" points="162.5001,-189.6717 159,-179.6718 155.5001,-189.6718 162.5001,-189.6717"/>
</g>
<!-- 139868165729976 -->
<g id="node6" class="node">
<title>139868165729976</title>
<polygon fill="#ffa500" stroke="#000000" points="423.5,-789.6955 260.5,-789.6955 260.5,-753.6955 423.5,-753.6955 423.5,-789.6955"/>
<text text-anchor="middle" x="342" y="-766.6955" font-family="Times,serif" font-size="20.00" fill="#000000">AddmmBackward</text>
</g>
<!-- 139868165730032 -->
<g id="node7" class="node">
<title>139868165730032</title>
<ellipse fill="#add8e6" stroke="#000000" cx="335" cy="-680.926" rx="62.4516" ry="36.5405"/>
<text text-anchor="middle" x="335" y="-686.926" font-family="Times,serif" font-size="20.00" fill="#000000">Tensor&#45;2</text>
<text text-anchor="middle" x="335" y="-664.926" font-family="Times,serif" font-size="20.00" fill="#000000">[1, 3]</text>
</g>
<!-- 139868165729976&#45;&gt;139868165730032 -->
<g id="edge4" class="edge">
<title>139868165729976&#45;&gt;139868165730032</title>
<path fill="none" stroke="#000000" d="M340.5834,-753.327C340.0145,-745.9499 339.3302,-737.0755 338.6386,-728.1075"/>
<polygon fill="#000000" stroke="#000000" points="342.1191,-727.7185 337.8604,-718.0173 335.1398,-728.2568 342.1191,-727.7185"/>
</g>
<!-- 139868166148896 -->
<g id="node16" class="node">
<title>139868166148896</title>
<polygon fill="#ffa500" stroke="#000000" points="391.5,-575.3869 266.5,-575.3869 266.5,-539.3869 391.5,-539.3869 391.5,-575.3869"/>
<text text-anchor="middle" x="329" y="-552.3869" font-family="Times,serif" font-size="20.00" fill="#000000">CatBackward</text>
</g>
<!-- 139868165730032&#45;&gt;139868166148896 -->
<g id="edge18" class="edge">
<title>139868165730032&#45;&gt;139868166148896</title>
<path fill="none" stroke="#000000" d="M333.1998,-643.8602C332.2908,-625.1436 331.2058,-602.8041 330.3664,-585.52"/>
<polygon fill="#000000" stroke="#000000" points="333.8603,-585.3074 329.8792,-575.489 326.8685,-585.6471 333.8603,-585.3074"/>
</g>
<!-- 139868165729808 -->
<g id="node8" class="node">
<title>139868165729808</title>
<ellipse fill="#556b2f" stroke="#000000" cx="401" cy="-972.0042" rx="49.4949" ry="36.5405"/>
<text text-anchor="middle" x="401" y="-978.0042" font-family="Times,serif" font-size="20.00" fill="#000000">weight</text>
<text text-anchor="middle" x="401" y="-956.0042" font-family="Times,serif" font-size="20.00" fill="#000000">[3, 3]</text>
</g>
<!-- 139868166148168 -->
<g id="node9" class="node">
<title>139868166148168</title>
<polygon fill="#ffa500" stroke="#000000" points="456,-880.4651 346,-880.4651 346,-844.4651 456,-844.4651 456,-880.4651"/>
<text text-anchor="middle" x="401" y="-857.4651" font-family="Times,serif" font-size="20.00" fill="#000000">TBackward</text>
</g>
<!-- 139868165729808&#45;&gt;139868166148168 -->
<g id="edge5" class="edge">
<title>139868165729808&#45;&gt;139868166148168</title>
<path fill="none" stroke="#000000" d="M401,-935.2245C401,-920.7079 401,-904.2946 401,-890.7358"/>
<polygon fill="#000000" stroke="#000000" points="404.5001,-890.5647 401,-880.5647 397.5001,-890.5648 404.5001,-890.5647"/>
</g>
<!-- 139868166148168&#45;&gt;139868165729976 -->
<g id="edge6" class="edge">
<title>139868166148168&#45;&gt;139868165729976</title>
<path fill="none" stroke="#000000" d="M389.0605,-844.0965C380.5278,-830.9693 368.9134,-813.101 359.358,-798.4002"/>
<polygon fill="#000000" stroke="#000000" points="362.1049,-796.204 353.7204,-789.727 356.2358,-800.0189 362.1049,-796.204"/>
</g>
<!-- 139868165729864 -->
<g id="node10" class="node">
<title>139868165729864</title>
<ellipse fill="#556b2f" stroke="#000000" cx="294" cy="-862.4651" rx="33.8824" ry="36.5405"/>
<text text-anchor="middle" x="294" y="-868.4651" font-family="Times,serif" font-size="20.00" fill="#000000">bias</text>
<text text-anchor="middle" x="294" y="-846.4651" font-family="Times,serif" font-size="20.00" fill="#000000">[3]</text>
</g>
<!-- 139868165729864&#45;&gt;139868165729976 -->
<g id="edge7" class="edge">
<title>139868165729864&#45;&gt;139868165729976</title>
<path fill="none" stroke="#000000" d="M310.923,-830.4631C316.3638,-820.1743 322.3376,-808.8778 327.5813,-798.9618"/>
<polygon fill="#000000" stroke="#000000" points="330.763,-800.432 332.3438,-789.9558 324.575,-797.1597 330.763,-800.432"/>
</g>
<!-- 139868166148392 -->
<g id="node11" class="node">
<title>139868166148392</title>
<polygon fill="#ffa500" stroke="#000000" points="235.5,-789.6955 56.5,-789.6955 56.5,-753.6955 235.5,-753.6955 235.5,-789.6955"/>
<text text-anchor="middle" x="146" y="-766.6955" font-family="Times,serif" font-size="20.00" fill="#000000">AddmmBackward&#45;2</text>
</g>
<!-- 139868166148448 -->
<g id="node12" class="node">
<title>139868166148448</title>
<ellipse fill="#add8e6" stroke="#000000" cx="166" cy="-680.926" rx="62.4516" ry="36.5405"/>
<text text-anchor="middle" x="166" y="-686.926" font-family="Times,serif" font-size="20.00" fill="#000000">Tensor&#45;3</text>
<text text-anchor="middle" x="166" y="-664.926" font-family="Times,serif" font-size="20.00" fill="#000000">[1, 3]</text>
</g>
<!-- 139868166148392&#45;&gt;139868166148448 -->
<g id="edge8" class="edge">
<title>139868166148392&#45;&gt;139868166148448</title>
<path fill="none" stroke="#000000" d="M150.0473,-753.327C151.707,-745.7945 153.7106,-736.701 155.729,-727.5406"/>
<polygon fill="#000000" stroke="#000000" points="159.1755,-728.164 157.9094,-717.6451 152.3395,-726.6577 159.1755,-728.164"/>
</g>
<!-- 139868166148448&#45;&gt;139868166148896 -->
<g id="edge16" class="edge">
<title>139868166148448&#45;&gt;139868166148896</title>
<path fill="none" stroke="#000000" d="M218.5322,-660.9273C233.0037,-654.183 248.2223,-645.8604 261,-636.1564 280.3578,-621.4553 298.1512,-600.4489 310.6774,-583.8258"/>
<polygon fill="#000000" stroke="#000000" points="313.6285,-585.7205 316.7281,-575.5892 307.987,-581.5762 313.6285,-585.7205"/>
</g>
<!-- 139868165730256 -->
<g id="node13" class="node">
<title>139868165730256</title>
<ellipse fill="#556b2f" stroke="#000000" cx="173" cy="-972.0042" rx="49.4949" ry="36.5405"/>
<text text-anchor="middle" x="173" y="-978.0042" font-family="Times,serif" font-size="20.00" fill="#000000">weight</text>
<text text-anchor="middle" x="173" y="-956.0042" font-family="Times,serif" font-size="20.00" fill="#000000">[3, 3]</text>
</g>
<!-- 139868166148672 -->
<g id="node14" class="node">
<title>139868166148672</title>
<polygon fill="#ffa500" stroke="#000000" points="236,-880.4651 110,-880.4651 110,-844.4651 236,-844.4651 236,-880.4651"/>
<text text-anchor="middle" x="173" y="-857.4651" font-family="Times,serif" font-size="20.00" fill="#000000">TBackward&#45;2</text>
</g>
<!-- 139868165730256&#45;&gt;139868166148672 -->
<g id="edge9" class="edge">
<title>139868165730256&#45;&gt;139868166148672</title>
<path fill="none" stroke="#000000" d="M173,-935.2245C173,-920.7079 173,-904.2946 173,-890.7358"/>
<polygon fill="#000000" stroke="#000000" points="176.5001,-890.5647 173,-880.5647 169.5001,-890.5648 176.5001,-890.5647"/>
</g>
<!-- 139868166148672&#45;&gt;139868166148392 -->
<g id="edge10" class="edge">
<title>139868166148672&#45;&gt;139868166148392</title>
<path fill="none" stroke="#000000" d="M167.5361,-844.0965C163.7419,-831.3408 158.616,-814.1086 154.317,-799.6559"/>
<polygon fill="#000000" stroke="#000000" points="157.5695,-798.3141 151.3636,-789.727 150.86,-800.3099 157.5695,-798.3141"/>
</g>
<!-- 139868166148280 -->
<g id="node15" class="node">
<title>139868166148280</title>
<ellipse fill="#556b2f" stroke="#000000" cx="58" cy="-862.4651" rx="33.8824" ry="36.5405"/>
<text text-anchor="middle" x="58" y="-868.4651" font-family="Times,serif" font-size="20.00" fill="#000000">bias</text>
<text text-anchor="middle" x="58" y="-846.4651" font-family="Times,serif" font-size="20.00" fill="#000000">[3]</text>
</g>
<!-- 139868166148280&#45;&gt;139868166148392 -->
<g id="edge11" class="edge">
<title>139868166148280&#45;&gt;139868166148392</title>
<path fill="none" stroke="#000000" d="M82.9819,-836.697C95.0168,-824.2833 109.4023,-809.445 121.3884,-797.0817"/>
<polygon fill="#000000" stroke="#000000" points="124.0512,-799.3634 128.4989,-789.7474 119.0253,-794.4909 124.0512,-799.3634"/>
</g>
<!-- 139868166148896&#45;&gt;139868166149120 -->
<g id="edge17" class="edge">
<title>139868166148896&#45;&gt;139868166149120</title>
<path fill="none" stroke="#000000" d="M329,-539.2987C329,-527.2357 329,-510.7791 329,-495.1492"/>
<polygon fill="#000000" stroke="#000000" points="332.5001,-495.0521 329,-485.0521 325.5001,-495.0521 332.5001,-495.0521"/>
</g>
<!-- 139868166148616 -->
<g id="node17" class="node">
<title>139868166148616</title>
<ellipse fill="#556b2f" stroke="#000000" cx="186" cy="-557.3869" rx="49.4949" ry="36.5405"/>
<text text-anchor="middle" x="186" y="-563.3869" font-family="Times,serif" font-size="20.00" fill="#000000">weight</text>
<text text-anchor="middle" x="186" y="-541.3869" font-family="Times,serif" font-size="20.00" fill="#000000">[1, 6]</text>
</g>
<!-- 139868166149512 -->
<g id="node19" class="node">
<title>139868166149512</title>
<polygon fill="#ffa500" stroke="#000000" points="249,-465.8478 123,-465.8478 123,-429.8478 249,-429.8478 249,-465.8478"/>
<text text-anchor="middle" x="186" y="-442.8478" font-family="Times,serif" font-size="20.00" fill="#000000">TBackward&#45;3</text>
</g>
<!-- 139868166148616&#45;&gt;139868166149512 -->
<g id="edge13" class="edge">
<title>139868166148616&#45;&gt;139868166149512</title>
<path fill="none" stroke="#000000" d="M186,-520.6072C186,-506.0906 186,-489.6773 186,-476.1185"/>
<polygon fill="#000000" stroke="#000000" points="189.5001,-475.9474 186,-465.9474 182.5001,-475.9475 189.5001,-475.9474"/>
</g>
<!-- 139868166148784 -->
<g id="node18" class="node">
<title>139868166148784</title>
<ellipse fill="#556b2f" stroke="#000000" cx="71" cy="-447.8478" rx="33.8824" ry="36.5405"/>
<text text-anchor="middle" x="71" y="-453.8478" font-family="Times,serif" font-size="20.00" fill="#000000">bias</text>
<text text-anchor="middle" x="71" y="-431.8478" font-family="Times,serif" font-size="20.00" fill="#000000">[1]</text>
</g>
<!-- 139868166148784&#45;&gt;139868166149176 -->
<g id="edge14" class="edge">
<title>139868166148784&#45;&gt;139868166149176</title>
<path fill="none" stroke="#000000" d="M95.9819,-422.0796C108.0168,-409.666 122.4023,-394.8277 134.3884,-382.4644"/>
<polygon fill="#000000" stroke="#000000" points="137.0512,-384.7461 141.4989,-375.1301 132.0253,-379.8736 137.0512,-384.7461"/>
</g>
<!-- 139868166149512&#45;&gt;139868166149176 -->
<g id="edge15" class="edge">
<title>139868166149512&#45;&gt;139868166149176</title>
<path fill="none" stroke="#000000" d="M180.5361,-429.4792C176.7419,-416.7235 171.616,-399.4913 167.317,-385.0385"/>
<polygon fill="#000000" stroke="#000000" points="170.5695,-383.6967 164.3636,-375.1097 163.86,-385.6926 170.5695,-383.6967"/>
</g>
<!-- 139868165729696 -->
<g id="node20" class="node">
<title>139868165729696</title>
<ellipse fill="#add8e6" stroke="#000000" cx="522" cy="-862.4651" rx="42.3529" ry="36.5405"/>
<text text-anchor="middle" x="522" y="-868.4651" font-family="Times,serif" font-size="20.00" fill="#000000">Input</text>
<text text-anchor="middle" x="522" y="-846.4651" font-family="Times,serif" font-size="20.00" fill="#000000">[1, 3]</text>
</g>
<!-- 139868165729696&#45;&gt;139868165729976 -->
<g id="edge20" class="edge">
<title>139868165729696&#45;&gt;139868165729976</title>
<path fill="none" stroke="#000000" d="M489.2207,-838.6751C482.3602,-834.1175 475.0618,-829.5658 468,-825.6955 446.2748,-813.7889 421.3843,-802.6368 399.4949,-793.5943"/>
<polygon fill="#000000" stroke="#000000" points="400.5757,-790.2553 389.9943,-789.7229 397.9341,-796.7378 400.5757,-790.2553"/>
</g>
<!-- 139868165729696&#45;&gt;139868166148392 -->
<g id="edge19" class="edge">
<title>139868165729696&#45;&gt;139868166148392</title>
<path fill="none" stroke="#000000" d="M490.456,-837.668C483.3839,-833.0761 475.689,-828.7666 468,-825.6955 375.9896,-788.9453 345.6761,-806.305 248,-789.6955 247.2355,-789.5655 246.4678,-789.4348 245.6973,-789.3034"/>
<polygon fill="#000000" stroke="#000000" points="245.9929,-785.8031 235.5452,-787.5627 244.8098,-792.7024 245.9929,-785.8031"/>
</g>
</g>
</svg>
