<?xml version="1.0" encoding="UTF-8" standalone="no"?>
<!DOCTYPE svg PUBLIC "-//W3C//DTD SVG 1.1//EN"
 "http://www.w3.org/Graphics/SVG/1.1/DTD/svg11.dtd">
<!-- Generated by graphviz version 2.40.1 (20161225.0304)
 -->
<!-- Title: %3 Pages: 1 -->
<svg width="572pt" height="1109pt"
 viewBox="0.00 0.00 572.43 1108.77" xmlns="http://www.w3.org/2000/svg" xmlns:xlink="http://www.w3.org/1999/xlink">
<g id="graph0" class="graph" transform="scale(1 1) rotate(0) translate(4 1104.7737)">
<title>%3</title>
<polygon fill="#ffffff" stroke="transparent" points="-4,4 -4,-1104.7737 568.4264,-1104.7737 568.4264,4 -4,4"/>
<text text-anchor="middle" x="282.2132" y="-10.8" font-family="Times,serif" font-size="24.00" fill="#000000">Sample Net at depth=2</text>
<g id="clust1" class="cluster">
<title>cluster_139875269807968</title>
<polygon fill="#ffffff" stroke="#000000" points="8,-127.5391 8,-1092.7737 472,-1092.7737 472,-127.5391 8,-127.5391"/>
<text text-anchor="middle" x="240" y="-1069.5737" font-family="Times,serif" font-size="24.00" fill="#000000">Sample Net</text>
</g>
<g id="clust2" class="cluster">
<title>cluster_139875269364984</title>
<polygon fill="#ffffff" stroke="#000000" points="68,-135.5391 68,-221.5391 243,-221.5391 243,-135.5391 68,-135.5391"/>
<text text-anchor="middle" x="155.5" y="-198.3391" font-family="Times,serif" font-size="24.00" fill="#000000">my_special_relu</text>
</g>
<g id="clust3" class="cluster">
<title>cluster_139875269362240</title>
<polygon fill="#ffffff" stroke="#000000" points="236,-745.6955 236,-1050.7737 464,-1050.7737 464,-745.6955 236,-745.6955"/>
<text text-anchor="middle" x="350" y="-1027.5737" font-family="Times,serif" font-size="24.00" fill="#000000">linear_2</text>
</g>
<g id="clust4" class="cluster">
<title>cluster_139875269836080</title>
<polygon fill="#ffffff" stroke="#000000" points="16,-745.6955 16,-1050.7737 228,-1050.7737 228,-745.6955 16,-745.6955"/>
<text text-anchor="middle" x="122" y="-1027.5737" font-family="Times,serif" font-size="24.00" fill="#000000">linear_1</text>
</g>
<g id="clust5" class="cluster">
<title>cluster_139875269362968</title>
<polygon fill="#ffffff" stroke="#000000" points="25,-331.0782 25,-636.1564 253,-636.1564 253,-331.0782 25,-331.0782"/>
<text text-anchor="middle" x="139" y="-612.9564" font-family="Times,serif" font-size="24.00" fill="#000000">linear_3</text>
</g>
<!-- 139875269530232 -->
<g id="node1" class="node">
<title>139875269530232</title>
<polygon fill="#ffa500" stroke="#000000" points="227.5,-179.5391 82.5,-179.5391 82.5,-143.5391 227.5,-143.5391 227.5,-179.5391"/>
<text text-anchor="middle" x="155" y="-156.5391" font-family="Times,serif" font-size="20.00" fill="#000000">ReluBackward0</text>
</g>
<!-- 139875269530288 -->
<g id="node2" class="node">
<title>139875269530288</title>
<ellipse fill="#add8e6" stroke="#000000" cx="155" cy="-70.7696" rx="50.41" ry="36.5405"/>
<text text-anchor="middle" x="155" y="-76.7696" font-family="Times,serif" font-size="20.00" fill="#000000">Output</text>
<text text-anchor="middle" x="155" y="-54.7696" font-family="Times,serif" font-size="20.00" fill="#000000">[1, 1]</text>
</g>
<!-- 139875269530232&#45;&gt;139875269530288 -->
<g id="edge1" class="edge">
<title>139875269530232&#45;&gt;139875269530288</title>
<path fill="none" stroke="#000000" d="M155,-143.1705C155,-135.7935 155,-126.9191 155,-117.9511"/>
<polygon fill="#000000" stroke="#000000" points="158.5001,-117.8608 155,-107.8608 151.5001,-117.8609 158.5001,-117.8608"/>
</g>
<!-- 139875269529784 -->
<g id="node3" class="node">
<title>139875269529784</title>
<ellipse fill="#add8e6" stroke="#000000" cx="155" cy="-266.3087" rx="62.4516" ry="36.5405"/>
<text text-anchor="middle" x="155" y="-272.3087" font-family="Times,serif" font-size="20.00" fill="#000000">Tensor&#45;5</text>
<text text-anchor="middle" x="155" y="-250.3087" font-family="Times,serif" font-size="20.00" fill="#000000">[1, 1]</text>
</g>
<!-- 139875269529784&#45;&gt;139875269530232 -->
<g id="edge2" class="edge">
<title>139875269529784&#45;&gt;139875269530232</title>
<path fill="none" stroke="#000000" d="M155,-229.3708C155,-216.339 155,-201.9064 155,-189.7159"/>
<polygon fill="#000000" stroke="#000000" points="158.5001,-189.6717 155,-179.6718 151.5001,-189.6718 158.5001,-189.6717"/>
</g>
<!-- 139875269443536 -->
<g id="node4" class="node">
<title>139875269443536</title>
<ellipse fill="#add8e6" stroke="#000000" cx="325" cy="-447.8478" rx="62.4516" ry="36.5405"/>
<text text-anchor="middle" x="325" y="-453.8478" font-family="Times,serif" font-size="20.00" fill="#000000">Tensor&#45;4</text>
<text text-anchor="middle" x="325" y="-431.8478" font-family="Times,serif" font-size="20.00" fill="#000000">[1, 6]</text>
</g>
<!-- 139875269529728 -->
<g id="node5" class="node">
<title>139875269529728</title>
<polygon fill="#ffa500" stroke="#000000" points="244.5,-375.0782 65.5,-375.0782 65.5,-339.0782 244.5,-339.0782 244.5,-375.0782"/>
<text text-anchor="middle" x="155" y="-352.0782" font-family="Times,serif" font-size="20.00" fill="#000000">AddmmBackward&#45;3</text>
</g>
<!-- 139875269443536&#45;&gt;139875269529728 -->
<g id="edge3" class="edge">
<title>139875269443536&#45;&gt;139875269529728</title>
<path fill="none" stroke="#000000" d="M278.941,-422.8715C271.6074,-418.9152 264.1001,-414.8772 257,-411.0782 237.8935,-400.8551 216.7265,-389.6324 198.6499,-380.079"/>
<polygon fill="#000000" stroke="#000000" points="199.983,-376.825 189.5059,-375.2496 196.7138,-383.0147 199.983,-376.825"/>
</g>
<!-- 139875269529728&#45;&gt;139875269529784 -->
<g id="edge12" class="edge">
<title>139875269529728&#45;&gt;139875269529784</title>
<path fill="none" stroke="#000000" d="M155,-338.7096C155,-331.3326 155,-322.4582 155,-313.4902"/>
<polygon fill="#000000" stroke="#000000" points="158.5001,-313.3999 155,-303.4 151.5001,-313.4 158.5001,-313.3999"/>
</g>
<!-- 139875269442304 -->
<g id="node6" class="node">
<title>139875269442304</title>
<ellipse fill="#add8e6" stroke="#000000" cx="160" cy="-680.926" rx="62.4516" ry="36.5405"/>
<text text-anchor="middle" x="160" y="-686.926" font-family="Times,serif" font-size="20.00" fill="#000000">Tensor&#45;2</text>
<text text-anchor="middle" x="160" y="-664.926" font-family="Times,serif" font-size="20.00" fill="#000000">[1, 3]</text>
</g>
<!-- 139875269443424 -->
<g id="node8" class="node">
<title>139875269443424</title>
<polygon fill="#ffa500" stroke="#000000" points="387.5,-575.3869 262.5,-575.3869 262.5,-539.3869 387.5,-539.3869 387.5,-575.3869"/>
<text text-anchor="middle" x="325" y="-552.3869" font-family="Times,serif" font-size="20.00" fill="#000000">CatBackward</text>
</g>
<!-- 139875269442304&#45;&gt;139875269443424 -->
<g id="edge16" class="edge">
<title>139875269442304&#45;&gt;139875269443424</title>
<path fill="none" stroke="#000000" d="M212.895,-661.4199C227.896,-654.6192 243.7403,-646.1433 257,-636.1564 276.4163,-621.5326 294.2067,-600.5223 306.7169,-583.878"/>
<polygon fill="#000000" stroke="#000000" points="309.6733,-585.7649 312.7583,-575.6291 304.0259,-581.6288 309.6733,-585.7649"/>
</g>
<!-- 139875269442920 -->
<g id="node7" class="node">
<title>139875269442920</title>
<ellipse fill="#add8e6" stroke="#000000" cx="329" cy="-680.926" rx="62.4516" ry="36.5405"/>
<text text-anchor="middle" x="329" y="-686.926" font-family="Times,serif" font-size="20.00" fill="#000000">Tensor&#45;3</text>
<text text-anchor="middle" x="329" y="-664.926" font-family="Times,serif" font-size="20.00" fill="#000000">[1, 3]</text>
</g>
<!-- 139875269442920&#45;&gt;139875269443424 -->
<g id="edge17" class="edge">
<title>139875269442920&#45;&gt;139875269443424</title>
<path fill="none" stroke="#000000" d="M327.7999,-643.8602C327.1939,-625.1436 326.4705,-602.8041 325.9109,-585.52"/>
<polygon fill="#000000" stroke="#000000" points="329.408,-585.3705 325.5861,-575.489 322.4117,-585.5971 329.408,-585.3705"/>
</g>
<!-- 139875269443424&#45;&gt;139875269443536 -->
<g id="edge18" class="edge">
<title>139875269443424&#45;&gt;139875269443536</title>
<path fill="none" stroke="#000000" d="M325,-539.2987C325,-527.2357 325,-510.7791 325,-495.1492"/>
<polygon fill="#000000" stroke="#000000" points="328.5001,-495.0521 325,-485.0521 321.5001,-495.0521 328.5001,-495.0521"/>
</g>
<!-- 139875269442864 -->
<g id="node9" class="node">
<title>139875269442864</title>
<polygon fill="#ffa500" stroke="#000000" points="423.5,-789.6955 244.5,-789.6955 244.5,-753.6955 423.5,-753.6955 423.5,-789.6955"/>
<text text-anchor="middle" x="334" y="-766.6955" font-family="Times,serif" font-size="20.00" fill="#000000">AddmmBackward&#45;2</text>
</g>
<!-- 139875269442864&#45;&gt;139875269442920 -->
<g id="edge4" class="edge">
<title>139875269442864&#45;&gt;139875269442920</title>
<path fill="none" stroke="#000000" d="M332.9882,-753.327C332.5818,-745.9499 332.093,-737.0755 331.599,-728.1075"/>
<polygon fill="#000000" stroke="#000000" points="335.088,-727.8096 331.0432,-718.0173 328.0986,-728.1947 335.088,-727.8096"/>
</g>
<!-- 139875269442640 -->
<g id="node10" class="node">
<title>139875269442640</title>
<ellipse fill="#556b2f" stroke="#000000" cx="393" cy="-972.0042" rx="49.4949" ry="36.5405"/>
<text text-anchor="middle" x="393" y="-978.0042" font-family="Times,serif" font-size="20.00" fill="#000000">weight</text>
<text text-anchor="middle" x="393" y="-956.0042" font-family="Times,serif" font-size="20.00" fill="#000000">[3, 3]</text>
</g>
<!-- 139875269443144 -->
<g id="node11" class="node">
<title>139875269443144</title>
<polygon fill="#ffa500" stroke="#000000" points="456,-880.4651 330,-880.4651 330,-844.4651 456,-844.4651 456,-880.4651"/>
<text text-anchor="middle" x="393" y="-857.4651" font-family="Times,serif" font-size="20.00" fill="#000000">TBackward&#45;2</text>
</g>
<!-- 139875269442640&#45;&gt;139875269443144 -->
<g id="edge5" class="edge">
<title>139875269442640&#45;&gt;139875269443144</title>
<path fill="none" stroke="#000000" d="M393,-935.2245C393,-920.7079 393,-904.2946 393,-890.7358"/>
<polygon fill="#000000" stroke="#000000" points="396.5001,-890.5647 393,-880.5647 389.5001,-890.5648 396.5001,-890.5647"/>
</g>
<!-- 139875269443144&#45;&gt;139875269442864 -->
<g id="edge6" class="edge">
<title>139875269443144&#45;&gt;139875269442864</title>
<path fill="none" stroke="#000000" d="M381.0605,-844.0965C372.5278,-830.9693 360.9134,-813.101 351.358,-798.4002"/>
<polygon fill="#000000" stroke="#000000" points="354.1049,-796.204 345.7204,-789.727 348.2358,-800.0189 354.1049,-796.204"/>
</g>
<!-- 139875269442696 -->
<g id="node12" class="node">
<title>139875269442696</title>
<ellipse fill="#556b2f" stroke="#000000" cx="278" cy="-862.4651" rx="33.8824" ry="36.5405"/>
<text text-anchor="middle" x="278" y="-868.4651" font-family="Times,serif" font-size="20.00" fill="#000000">bias</text>
<text text-anchor="middle" x="278" y="-846.4651" font-family="Times,serif" font-size="20.00" fill="#000000">[3]</text>
</g>
<!-- 139875269442696&#45;&gt;139875269442864 -->
<g id="edge7" class="edge">
<title>139875269442696&#45;&gt;139875269442864</title>
<path fill="none" stroke="#000000" d="M296.959,-831.7346C303.5853,-820.9943 310.9682,-809.0274 317.3883,-798.6211"/>
<polygon fill="#000000" stroke="#000000" points="320.4672,-800.2965 322.7391,-789.9481 314.5097,-796.621 320.4672,-800.2965"/>
</g>
<!-- 139875269442248 -->
<g id="node13" class="node">
<title>139875269442248</title>
<polygon fill="#ffa500" stroke="#000000" points="219.5,-789.6955 56.5,-789.6955 56.5,-753.6955 219.5,-753.6955 219.5,-789.6955"/>
<text text-anchor="middle" x="138" y="-766.6955" font-family="Times,serif" font-size="20.00" fill="#000000">AddmmBackward</text>
</g>
<!-- 139875269442248&#45;&gt;139875269442304 -->
<g id="edge8" class="edge">
<title>139875269442248&#45;&gt;139875269442304</title>
<path fill="none" stroke="#000000" d="M142.452,-753.327C144.2777,-745.7945 146.4817,-736.701 148.7019,-727.5406"/>
<polygon fill="#000000" stroke="#000000" points="152.1462,-728.1882 151.1003,-717.6451 145.3432,-726.5392 152.1462,-728.1882"/>
</g>
<!-- 139875269442024 -->
<g id="node14" class="node">
<title>139875269442024</title>
<ellipse fill="#556b2f" stroke="#000000" cx="165" cy="-972.0042" rx="49.4949" ry="36.5405"/>
<text text-anchor="middle" x="165" y="-978.0042" font-family="Times,serif" font-size="20.00" fill="#000000">weight</text>
<text text-anchor="middle" x="165" y="-956.0042" font-family="Times,serif" font-size="20.00" fill="#000000">[3, 3]</text>
</g>
<!-- 139875269442528 -->
<g id="node16" class="node">
<title>139875269442528</title>
<polygon fill="#ffa500" stroke="#000000" points="220,-880.4651 110,-880.4651 110,-844.4651 220,-844.4651 220,-880.4651"/>
<text text-anchor="middle" x="165" y="-857.4651" font-family="Times,serif" font-size="20.00" fill="#000000">TBackward</text>
</g>
<!-- 139875269442024&#45;&gt;139875269442528 -->
<g id="edge9" class="edge">
<title>139875269442024&#45;&gt;139875269442528</title>
<path fill="none" stroke="#000000" d="M165,-935.2245C165,-920.7079 165,-904.2946 165,-890.7358"/>
<polygon fill="#000000" stroke="#000000" points="168.5001,-890.5647 165,-880.5647 161.5001,-890.5648 168.5001,-890.5647"/>
</g>
<!-- 139875269442080 -->
<g id="node15" class="node">
<title>139875269442080</title>
<ellipse fill="#556b2f" stroke="#000000" cx="58" cy="-862.4651" rx="33.8824" ry="36.5405"/>
<text text-anchor="middle" x="58" y="-868.4651" font-family="Times,serif" font-size="20.00" fill="#000000">bias</text>
<text text-anchor="middle" x="58" y="-846.4651" font-family="Times,serif" font-size="20.00" fill="#000000">[3]</text>
</g>
<!-- 139875269442080&#45;&gt;139875269442248 -->
<g id="edge10" class="edge">
<title>139875269442080&#45;&gt;139875269442248</title>
<path fill="none" stroke="#000000" d="M81.5699,-835.7222C92.1303,-823.7402 104.5399,-809.66 115.0287,-797.7592"/>
<polygon fill="#000000" stroke="#000000" points="117.9508,-799.7372 121.9371,-789.9208 112.6993,-795.1087 117.9508,-799.7372"/>
</g>
<!-- 139875269442528&#45;&gt;139875269442248 -->
<g id="edge11" class="edge">
<title>139875269442528&#45;&gt;139875269442248</title>
<path fill="none" stroke="#000000" d="M159.5361,-844.0965C155.7419,-831.3408 150.616,-814.1086 146.317,-799.6559"/>
<polygon fill="#000000" stroke="#000000" points="149.5695,-798.3141 143.3636,-789.727 142.86,-800.3099 149.5695,-798.3141"/>
</g>
<!-- 139875269443256 -->
<g id="node17" class="node">
<title>139875269443256</title>
<ellipse fill="#556b2f" stroke="#000000" cx="182" cy="-557.3869" rx="49.4949" ry="36.5405"/>
<text text-anchor="middle" x="182" y="-563.3869" font-family="Times,serif" font-size="20.00" fill="#000000">weight</text>
<text text-anchor="middle" x="182" y="-541.3869" font-family="Times,serif" font-size="20.00" fill="#000000">[1, 6]</text>
</g>
<!-- 139875269530008 -->
<g id="node18" class="node">
<title>139875269530008</title>
<polygon fill="#ffa500" stroke="#000000" points="245,-465.8478 119,-465.8478 119,-429.8478 245,-429.8478 245,-465.8478"/>
<text text-anchor="middle" x="182" y="-442.8478" font-family="Times,serif" font-size="20.00" fill="#000000">TBackward&#45;3</text>
</g>
<!-- 139875269443256&#45;&gt;139875269530008 -->
<g id="edge13" class="edge">
<title>139875269443256&#45;&gt;139875269530008</title>
<path fill="none" stroke="#000000" d="M182,-520.6072C182,-506.0906 182,-489.6773 182,-476.1185"/>
<polygon fill="#000000" stroke="#000000" points="185.5001,-475.9474 182,-465.9474 178.5001,-475.9475 185.5001,-475.9474"/>
</g>
<!-- 139875269530008&#45;&gt;139875269529728 -->
<g id="edge14" class="edge">
<title>139875269530008&#45;&gt;139875269529728</title>
<path fill="none" stroke="#000000" d="M176.5361,-429.4792C172.7419,-416.7235 167.616,-399.4913 163.317,-385.0385"/>
<polygon fill="#000000" stroke="#000000" points="166.5695,-383.6967 160.3636,-375.1097 159.86,-385.6926 166.5695,-383.6967"/>
</g>
<!-- 139875269443312 -->
<g id="node19" class="node">
<title>139875269443312</title>
<ellipse fill="#556b2f" stroke="#000000" cx="67" cy="-447.8478" rx="33.8824" ry="36.5405"/>
<text text-anchor="middle" x="67" y="-453.8478" font-family="Times,serif" font-size="20.00" fill="#000000">bias</text>
<text text-anchor="middle" x="67" y="-431.8478" font-family="Times,serif" font-size="20.00" fill="#000000">[1]</text>
</g>
<!-- 139875269443312&#45;&gt;139875269529728 -->
<g id="edge15" class="edge">
<title>139875269443312&#45;&gt;139875269529728</title>
<path fill="none" stroke="#000000" d="M91.9819,-422.0796C104.0168,-409.666 118.4023,-394.8277 130.3884,-382.4644"/>
<polygon fill="#000000" stroke="#000000" points="133.0512,-384.7461 137.4989,-375.1301 128.0253,-379.8736 133.0512,-384.7461"/>
</g>
<!-- 139875269440792 -->
<g id="node20" class="node">
<title>139875269440792</title>
<ellipse fill="#add8e6" stroke="#000000" cx="522" cy="-862.4651" rx="42.3529" ry="36.5405"/>
<text text-anchor="middle" x="522" y="-868.4651" font-family="Times,serif" font-size="20.00" fill="#000000">Input</text>
<text text-anchor="middle" x="522" y="-846.4651" font-family="Times,serif" font-size="20.00" fill="#000000">[1, 3]</text>
</g>
<!-- 139875269440792&#45;&gt;139875269442864 -->
<g id="edge20" class="edge">
<title>139875269440792&#45;&gt;139875269442864</title>
<path fill="none" stroke="#000000" d="M489.576,-838.7463C482.6267,-834.1333 475.2036,-829.5419 468,-825.6955 445.0536,-813.4432 418.7069,-802.2556 395.4809,-793.2809"/>
<polygon fill="#000000" stroke="#000000" points="396.6666,-789.9873 386.0756,-789.7004 394.1761,-796.5293 396.6666,-789.9873"/>
</g>
<!-- 139875269440792&#45;&gt;139875269442248 -->
<g id="edge19" class="edge">
<title>139875269440792&#45;&gt;139875269442248</title>
<path fill="none" stroke="#000000" d="M490.4813,-837.6042C483.4075,-833.0166 475.7055,-828.725 468,-825.6955 369.2551,-786.8737 336.5676,-807.6762 232,-789.6955 231.2477,-789.5662 230.4922,-789.4357 229.7338,-789.3041"/>
<polygon fill="#000000" stroke="#000000" points="230.1956,-785.8316 219.7394,-787.54 228.9788,-792.725 230.1956,-785.8316"/>
</g>
</g>
</svg>
