<?xml version="1.0" encoding="UTF-8" standalone="no"?>
<!DOCTYPE svg PUBLIC "-//W3C//DTD SVG 1.1//EN"
 "http://www.w3.org/Graphics/SVG/1.1/DTD/svg11.dtd">
<!-- Generated by graphviz version 2.40.1 (20161225.0304)
 -->
<!-- Title: %3 Pages: 1 -->
<svg width="306pt" height="856pt"
 viewBox="0.00 0.00 306.00 855.70" xmlns="http://www.w3.org/2000/svg" xmlns:xlink="http://www.w3.org/1999/xlink">
<g id="graph0" class="graph" transform="scale(1 1) rotate(0) translate(4 851.6955)">
<title>%3</title>
<polygon fill="#ffffff" stroke="transparent" points="-4,4 -4,-851.6955 302,-851.6955 302,4 -4,4"/>
<text text-anchor="middle" x="149" y="-10.8" font-family="Times,serif" font-size="24.00" fill="#000000">Sample Net at depth=1</text>
<g id="clust1" class="cluster">
<title>cluster_139807860052040</title>
<polygon fill="#ffffff" stroke="#000000" points="8,-135.5391 8,-766.1564 290,-766.1564 290,-135.5391 8,-135.5391"/>
<text text-anchor="middle" x="149" y="-742.9564" font-family="Times,serif" font-size="24.00" fill="#000000">Sample Net</text>
</g>
<!-- 139807860137152 -->
<g id="node1" class="node">
<title>139807860137152</title>
<polygon fill="#d3d3d3" stroke="#000000" points="222.5,-179.5391 75.5,-179.5391 75.5,-143.5391 222.5,-143.5391 222.5,-179.5391"/>
<text text-anchor="middle" x="149" y="-156.5391" font-family="Times,serif" font-size="20.00" fill="#000000">my_special_relu</text>
</g>
<!-- 139807860217336 -->
<g id="node2" class="node">
<title>139807860217336</title>
<ellipse fill="#add8e6" stroke="#000000" cx="149" cy="-70.7696" rx="50.41" ry="36.5405"/>
<text text-anchor="middle" x="149" y="-76.7696" font-family="Times,serif" font-size="20.00" fill="#000000">Output</text>
<text text-anchor="middle" x="149" y="-54.7696" font-family="Times,serif" font-size="20.00" fill="#000000">[1, 1]</text>
</g>
<!-- 139807860137152&#45;&gt;139807860217336 -->
<g id="edge1" class="edge">
<title>139807860137152&#45;&gt;139807860217336</title>
<path fill="none" stroke="#000000" d="M149,-143.1705C149,-135.7935 149,-126.9191 149,-117.9511"/>
<polygon fill="#000000" stroke="#000000" points="152.5001,-117.8608 149,-107.8608 145.5001,-117.8609 152.5001,-117.8608"/>
</g>
<!-- 139807860137656 -->
<g id="node3" class="node">
<title>139807860137656</title>
<ellipse fill="#add8e6" stroke="#000000" cx="78" cy="-615.3869" rx="62.4516" ry="36.5405"/>
<text text-anchor="middle" x="78" y="-621.3869" font-family="Times,serif" font-size="20.00" fill="#000000">Tensor&#45;2</text>
<text text-anchor="middle" x="78" y="-599.3869" font-family="Times,serif" font-size="20.00" fill="#000000">[1, 3]</text>
</g>
<!-- 139807860216552 -->
<g id="node5" class="node">
<title>139807860216552</title>
<polygon fill="#ffa500" stroke="#000000" points="211.5,-542.6173 86.5,-542.6173 86.5,-506.6173 211.5,-506.6173 211.5,-542.6173"/>
<text text-anchor="middle" x="149" y="-519.6173" font-family="Times,serif" font-size="20.00" fill="#000000">CatBackward</text>
</g>
<!-- 139807860137656&#45;&gt;139807860216552 -->
<g id="edge2" class="edge">
<title>139807860137656&#45;&gt;139807860216552</title>
<path fill="none" stroke="#000000" d="M104.2361,-581.8455C112.2409,-571.6118 120.9213,-560.5143 128.4887,-550.8398"/>
<polygon fill="#000000" stroke="#000000" points="131.4031,-552.7948 134.8074,-542.7618 125.8894,-548.482 131.4031,-552.7948"/>
</g>
<!-- 139807860216888 -->
<g id="node4" class="node">
<title>139807860216888</title>
<ellipse fill="#add8e6" stroke="#000000" cx="149" cy="-252.3087" rx="62.4516" ry="36.5405"/>
<text text-anchor="middle" x="149" y="-258.3087" font-family="Times,serif" font-size="20.00" fill="#000000">Tensor&#45;5</text>
<text text-anchor="middle" x="149" y="-236.3087" font-family="Times,serif" font-size="20.00" fill="#000000">[1, 1]</text>
</g>
<!-- 139807860216888&#45;&gt;139807860137152 -->
<g id="edge3" class="edge">
<title>139807860216888&#45;&gt;139807860137152</title>
<path fill="none" stroke="#000000" d="M149,-215.3892C149,-207.0207 149,-198.2541 149,-190.2825"/>
<polygon fill="#000000" stroke="#000000" points="152.5001,-190.0171 149,-180.0171 145.5001,-190.0171 152.5001,-190.0171"/>
</g>
<!-- 139807860216776 -->
<g id="node6" class="node">
<title>139807860216776</title>
<ellipse fill="#add8e6" stroke="#000000" cx="149" cy="-433.8478" rx="62.4516" ry="36.5405"/>
<text text-anchor="middle" x="149" y="-439.8478" font-family="Times,serif" font-size="20.00" fill="#000000">Tensor&#45;4</text>
<text text-anchor="middle" x="149" y="-417.8478" font-family="Times,serif" font-size="20.00" fill="#000000">[1, 6]</text>
</g>
<!-- 139807860216552&#45;&gt;139807860216776 -->
<g id="edge4" class="edge">
<title>139807860216552&#45;&gt;139807860216776</title>
<path fill="none" stroke="#000000" d="M149,-506.2487C149,-498.8717 149,-489.9973 149,-481.0293"/>
<polygon fill="#000000" stroke="#000000" points="152.5001,-480.939 149,-470.9391 145.5001,-480.9391 152.5001,-480.939"/>
</g>
<!-- 139807860136984 -->
<g id="node10" class="node">
<title>139807860136984</title>
<polygon fill="#d3d3d3" stroke="#000000" points="189.5,-361.0782 108.5,-361.0782 108.5,-325.0782 189.5,-325.0782 189.5,-361.0782"/>
<text text-anchor="middle" x="149" y="-338.0782" font-family="Times,serif" font-size="20.00" fill="#000000">linear_3</text>
</g>
<!-- 139807860216776&#45;&gt;139807860136984 -->
<g id="edge5" class="edge">
<title>139807860216776&#45;&gt;139807860136984</title>
<path fill="none" stroke="#000000" d="M149,-396.9283C149,-388.5598 149,-379.7932 149,-371.8216"/>
<polygon fill="#000000" stroke="#000000" points="152.5001,-371.5562 149,-361.5562 145.5001,-371.5562 152.5001,-371.5562"/>
</g>
<!-- 139807860216104 -->
<g id="node7" class="node">
<title>139807860216104</title>
<ellipse fill="#add8e6" stroke="#000000" cx="220" cy="-615.3869" rx="62.4516" ry="36.5405"/>
<text text-anchor="middle" x="220" y="-621.3869" font-family="Times,serif" font-size="20.00" fill="#000000">Tensor&#45;3</text>
<text text-anchor="middle" x="220" y="-599.3869" font-family="Times,serif" font-size="20.00" fill="#000000">[1, 3]</text>
</g>
<!-- 139807860216104&#45;&gt;139807860216552 -->
<g id="edge6" class="edge">
<title>139807860216104&#45;&gt;139807860216552</title>
<path fill="none" stroke="#000000" d="M193.7639,-581.8455C185.7591,-571.6118 177.0787,-560.5143 169.5113,-550.8398"/>
<polygon fill="#000000" stroke="#000000" points="172.1106,-548.482 163.1926,-542.7618 166.5969,-552.7948 172.1106,-548.482"/>
</g>
<!-- 139807860136816 -->
<g id="node8" class="node">
<title>139807860136816</title>
<polygon fill="#d3d3d3" stroke="#000000" points="260.5,-724.1564 179.5,-724.1564 179.5,-688.1564 260.5,-688.1564 260.5,-724.1564"/>
<text text-anchor="middle" x="220" y="-701.1564" font-family="Times,serif" font-size="20.00" fill="#000000">linear_2</text>
</g>
<!-- 139807860136816&#45;&gt;139807860216104 -->
<g id="edge7" class="edge">
<title>139807860136816&#45;&gt;139807860216104</title>
<path fill="none" stroke="#000000" d="M220,-687.7878C220,-680.4108 220,-671.5364 220,-662.5684"/>
<polygon fill="#000000" stroke="#000000" points="223.5001,-662.4781 220,-652.4782 216.5001,-662.4782 223.5001,-662.4781"/>
</g>
<!-- 139807860535024 -->
<g id="node9" class="node">
<title>139807860535024</title>
<polygon fill="#d3d3d3" stroke="#000000" points="118.5,-724.1564 37.5,-724.1564 37.5,-688.1564 118.5,-688.1564 118.5,-724.1564"/>
<text text-anchor="middle" x="78" y="-701.1564" font-family="Times,serif" font-size="20.00" fill="#000000">linear_1</text>
</g>
<!-- 139807860535024&#45;&gt;139807860137656 -->
<g id="edge8" class="edge">
<title>139807860535024&#45;&gt;139807860137656</title>
<path fill="none" stroke="#000000" d="M78,-687.7878C78,-680.4108 78,-671.5364 78,-662.5684"/>
<polygon fill="#000000" stroke="#000000" points="81.5001,-662.4781 78,-652.4782 74.5001,-662.4782 81.5001,-662.4781"/>
</g>
<!-- 139807860136984&#45;&gt;139807860216888 -->
<g id="edge9" class="edge">
<title>139807860136984&#45;&gt;139807860216888</title>
<path fill="none" stroke="#000000" d="M149,-324.7096C149,-317.3326 149,-308.4582 149,-299.4902"/>
<polygon fill="#000000" stroke="#000000" points="152.5001,-299.3999 149,-289.4 145.5001,-299.4 152.5001,-299.3999"/>
</g>
<!-- 139807860137320 -->
<g id="node11" class="node">
<title>139807860137320</title>
<ellipse fill="#add8e6" stroke="#000000" cx="149" cy="-810.926" rx="42.3529" ry="36.5405"/>
<text text-anchor="middle" x="149" y="-816.926" font-family="Times,serif" font-size="20.00" fill="#000000">Input</text>
<text text-anchor="middle" x="149" y="-794.926" font-family="Times,serif" font-size="20.00" fill="#000000">[1, 3]</text>
</g>
<!-- 139807860137320&#45;&gt;139807860136816 -->
<g id="edge11" class="edge">
<title>139807860137320&#45;&gt;139807860136816</title>
<path fill="none" stroke="#000000" d="M170.495,-779.2073C180.5673,-764.3444 192.431,-746.838 202.0191,-732.6895"/>
<polygon fill="#000000" stroke="#000000" points="204.9461,-734.6092 207.6587,-724.3675 199.1514,-730.6823 204.9461,-734.6092"/>
</g>
<!-- 139807860137320&#45;&gt;139807860535024 -->
<g id="edge10" class="edge">
<title>139807860137320&#45;&gt;139807860535024</title>
<path fill="none" stroke="#000000" d="M127.505,-779.2073C117.4327,-764.3444 105.569,-746.838 95.9809,-732.6895"/>
<polygon fill="#000000" stroke="#000000" points="98.8486,-730.6823 90.3413,-724.3675 93.0539,-734.6092 98.8486,-730.6823"/>
</g>
</g>
</svg>
