<?xml version="1.0" encoding="UTF-8" standalone="no"?>
<!DOCTYPE svg PUBLIC "-//W3C//DTD SVG 1.1//EN"
 "http://www.w3.org/Graphics/SVG/1.1/DTD/svg11.dtd">
<!-- Generated by graphviz version 2.40.1 (20161225.0304)
 -->
<!-- Title: %3 Pages: 1 -->
<svg width="572pt" height="1187pt"
 viewBox="0.00 0.00 572.43 1186.77" xmlns="http://www.w3.org/2000/svg" xmlns:xlink="http://www.w3.org/1999/xlink">
<g id="graph0" class="graph" transform="scale(1 1) rotate(0) translate(4 1182.7737)">
<title>%3</title>
<polygon fill="#ffffff" stroke="transparent" points="-4,4 -4,-1182.7737 568.4264,-1182.7737 568.4264,4 -4,4"/>
<text text-anchor="middle" x="282.2132" y="-10.8" font-family="Times,serif" font-size="24.00" fill="#000000">Sample Net at depth = 2</text>
<g id="clust1" class="cluster">
<title>cluster_140232463868144</title>
<polygon fill="#ffffff" stroke="#000000" points="8,-127.5391 8,-1170.7737 472,-1170.7737 472,-127.5391 8,-127.5391"/>
<text text-anchor="middle" x="240" y="-1147.5737" font-family="Times,serif" font-size="24.00" fill="#000000">Sample Net</text>
</g>
<g id="clust2" class="cluster">
<title>cluster_140232463869208</title>
<polygon fill="#ffffff" stroke="#000000" points="252,-797.6955 252,-1128.7737 464,-1128.7737 464,-797.6955 252,-797.6955"/>
<text text-anchor="middle" x="358" y="-1105.5737" font-family="Times,serif" font-size="24.00" fill="#000000">linear_1</text>
<text text-anchor="middle" x="358" y="-1079.5737" font-family="Times,serif" font-size="24.00" fill="#000000">(Linear)</text>
</g>
<g id="clust3" class="cluster">
<title>cluster_140232463870776</title>
<polygon fill="#ffffff" stroke="#000000" points="16,-797.6955 16,-1128.7737 244,-1128.7737 244,-797.6955 16,-797.6955"/>
<text text-anchor="middle" x="130" y="-1105.5737" font-family="Times,serif" font-size="24.00" fill="#000000">linear_2</text>
<text text-anchor="middle" x="130" y="-1079.5737" font-family="Times,serif" font-size="24.00" fill="#000000">(Linear)</text>
</g>
<g id="clust4" class="cluster">
<title>cluster_140232463394016</title>
<polygon fill="#ffffff" stroke="#000000" points="72,-135.5391 72,-247.5391 247,-247.5391 247,-135.5391 72,-135.5391"/>
<text text-anchor="middle" x="159.5" y="-224.3391" font-family="Times,serif" font-size="24.00" fill="#000000">my_special_relu</text>
<text text-anchor="middle" x="159.5" y="-198.3391" font-family="Times,serif" font-size="24.00" fill="#000000">(ReLU)</text>
</g>
<g id="clust5" class="cluster">
<title>cluster_140232463421568</title>
<polygon fill="#ffffff" stroke="#000000" points="29,-357.0782 29,-688.1564 257,-688.1564 257,-357.0782 29,-357.0782"/>
<text text-anchor="middle" x="143" y="-664.9564" font-family="Times,serif" font-size="24.00" fill="#000000">linear_3</text>
<text text-anchor="middle" x="143" y="-638.9564" font-family="Times,serif" font-size="24.00" fill="#000000">(Linear)</text>
</g>
<!-- 140232463561784 -->
<g id="node1" class="node">
<title>140232463561784</title>
<polygon fill="#ffa500" stroke="#000000" points="231.5,-179.5391 86.5,-179.5391 86.5,-143.5391 231.5,-143.5391 231.5,-179.5391"/>
<text text-anchor="middle" x="159" y="-156.5391" font-family="Times,serif" font-size="20.00" fill="#000000">ReluBackward0</text>
</g>
<!-- 140232463561840 -->
<g id="node2" class="node">
<title>140232463561840</title>
<ellipse fill="#add8e6" stroke="#000000" cx="159" cy="-70.7696" rx="50.41" ry="36.5405"/>
<text text-anchor="middle" x="159" y="-76.7696" font-family="Times,serif" font-size="20.00" fill="#000000">Output</text>
<text text-anchor="middle" x="159" y="-54.7696" font-family="Times,serif" font-size="20.00" fill="#000000">[1, 1]</text>
</g>
<!-- 140232463561784&#45;&gt;140232463561840 -->
<g id="edge1" class="edge">
<title>140232463561784&#45;&gt;140232463561840</title>
<path fill="none" stroke="#000000" d="M159,-143.1705C159,-135.7935 159,-126.9191 159,-117.9511"/>
<polygon fill="#000000" stroke="#000000" points="162.5001,-117.8608 159,-107.8608 155.5001,-117.8609 162.5001,-117.8608"/>
</g>
<!-- 140232463561336 -->
<g id="node3" class="node">
<title>140232463561336</title>
<ellipse fill="#add8e6" stroke="#000000" cx="159" cy="-292.3087" rx="62.4516" ry="36.5405"/>
<text text-anchor="middle" x="159" y="-298.3087" font-family="Times,serif" font-size="20.00" fill="#000000">Tensor&#45;5</text>
<text text-anchor="middle" x="159" y="-276.3087" font-family="Times,serif" font-size="20.00" fill="#000000">[1, 1]</text>
</g>
<!-- 140232463561336&#45;&gt;140232463561784 -->
<g id="edge2" class="edge">
<title>140232463561336&#45;&gt;140232463561784</title>
<path fill="none" stroke="#000000" d="M159,-255.534C159,-234.7241 159,-209.0979 159,-189.8619"/>
<polygon fill="#000000" stroke="#000000" points="162.5001,-189.6319 159,-179.6319 155.5001,-189.6319 162.5001,-189.6319"/>
</g>
<!-- 140232463561168 -->
<g id="node4" class="node">
<title>140232463561168</title>
<ellipse fill="#add8e6" stroke="#000000" cx="329" cy="-473.8478" rx="62.4516" ry="36.5405"/>
<text text-anchor="middle" x="329" y="-479.8478" font-family="Times,serif" font-size="20.00" fill="#000000">Tensor&#45;4</text>
<text text-anchor="middle" x="329" y="-457.8478" font-family="Times,serif" font-size="20.00" fill="#000000">[1, 6]</text>
</g>
<!-- 140232463561280 -->
<g id="node5" class="node">
<title>140232463561280</title>
<polygon fill="#ffa500" stroke="#000000" points="248.5,-401.0782 69.5,-401.0782 69.5,-365.0782 248.5,-365.0782 248.5,-401.0782"/>
<text text-anchor="middle" x="159" y="-378.0782" font-family="Times,serif" font-size="20.00" fill="#000000">AddmmBackward&#45;3</text>
</g>
<!-- 140232463561168&#45;&gt;140232463561280 -->
<g id="edge3" class="edge">
<title>140232463561168&#45;&gt;140232463561280</title>
<path fill="none" stroke="#000000" d="M282.941,-448.8715C275.6074,-444.9152 268.1001,-440.8772 261,-437.0782 241.8935,-426.8551 220.7265,-415.6324 202.6499,-406.079"/>
<polygon fill="#000000" stroke="#000000" points="203.983,-402.825 193.5059,-401.2496 200.7138,-409.0147 203.983,-402.825"/>
</g>
<!-- 140232463561280&#45;&gt;140232463561336 -->
<g id="edge12" class="edge">
<title>140232463561280&#45;&gt;140232463561336</title>
<path fill="none" stroke="#000000" d="M159,-364.7096C159,-357.3326 159,-348.4582 159,-339.4902"/>
<polygon fill="#000000" stroke="#000000" points="162.5001,-339.3999 159,-329.4 155.5001,-339.4 162.5001,-339.3999"/>
</g>
<!-- 140232463490240 -->
<g id="node6" class="node">
<title>140232463490240</title>
<ellipse fill="#add8e6" stroke="#000000" cx="335" cy="-732.926" rx="62.4516" ry="36.5405"/>
<text text-anchor="middle" x="335" y="-738.926" font-family="Times,serif" font-size="20.00" fill="#000000">Tensor&#45;2</text>
<text text-anchor="middle" x="335" y="-716.926" font-family="Times,serif" font-size="20.00" fill="#000000">[1, 3]</text>
</g>
<!-- 140232463561056 -->
<g id="node16" class="node">
<title>140232463561056</title>
<polygon fill="#ffa500" stroke="#000000" points="391.5,-601.3869 266.5,-601.3869 266.5,-565.3869 391.5,-565.3869 391.5,-601.3869"/>
<text text-anchor="middle" x="329" y="-578.3869" font-family="Times,serif" font-size="20.00" fill="#000000">CatBackward</text>
</g>
<!-- 140232463490240&#45;&gt;140232463561056 -->
<g id="edge16" class="edge">
<title>140232463490240&#45;&gt;140232463561056</title>
<path fill="none" stroke="#000000" d="M333.5169,-695.9612C332.4756,-670.0102 331.1035,-635.8139 330.146,-611.9486"/>
<polygon fill="#000000" stroke="#000000" points="333.6361,-611.6288 329.7379,-601.7771 326.6417,-611.9095 333.6361,-611.6288"/>
</g>
<!-- 140232463490856 -->
<g id="node7" class="node">
<title>140232463490856</title>
<ellipse fill="#add8e6" stroke="#000000" cx="166" cy="-732.926" rx="62.4516" ry="36.5405"/>
<text text-anchor="middle" x="166" y="-738.926" font-family="Times,serif" font-size="20.00" fill="#000000">Tensor&#45;3</text>
<text text-anchor="middle" x="166" y="-716.926" font-family="Times,serif" font-size="20.00" fill="#000000">[1, 3]</text>
</g>
<!-- 140232463490856&#45;&gt;140232463561056 -->
<g id="edge17" class="edge">
<title>140232463490856&#45;&gt;140232463561056</title>
<path fill="none" stroke="#000000" d="M219.4253,-714.0236C233.911,-707.2966 248.9136,-698.7089 261,-688.1564 285.7267,-666.568 304.9871,-633.8781 316.6002,-610.7639"/>
<polygon fill="#000000" stroke="#000000" points="319.8772,-612.0281 321.1026,-601.5044 313.582,-608.9671 319.8772,-612.0281"/>
</g>
<!-- 140232463490184 -->
<g id="node8" class="node">
<title>140232463490184</title>
<polygon fill="#ffa500" stroke="#000000" points="423.5,-841.6955 260.5,-841.6955 260.5,-805.6955 423.5,-805.6955 423.5,-841.6955"/>
<text text-anchor="middle" x="342" y="-818.6955" font-family="Times,serif" font-size="20.00" fill="#000000">AddmmBackward</text>
</g>
<!-- 140232463490184&#45;&gt;140232463490240 -->
<g id="edge4" class="edge">
<title>140232463490184&#45;&gt;140232463490240</title>
<path fill="none" stroke="#000000" d="M340.5834,-805.327C340.0145,-797.9499 339.3302,-789.0755 338.6386,-780.1075"/>
<polygon fill="#000000" stroke="#000000" points="342.1191,-779.7185 337.8604,-770.0173 335.1398,-780.2568 342.1191,-779.7185"/>
</g>
<!-- 140232463396648 -->
<g id="node9" class="node">
<title>140232463396648</title>
<ellipse fill="#556b2f" stroke="#000000" cx="401" cy="-1024.0042" rx="49.4949" ry="36.5405"/>
<text text-anchor="middle" x="401" y="-1030.0042" font-family="Times,serif" font-size="20.00" fill="#000000">weight</text>
<text text-anchor="middle" x="401" y="-1008.0042" font-family="Times,serif" font-size="20.00" fill="#000000">[3, 3]</text>
</g>
<!-- 140232463490464 -->
<g id="node11" class="node">
<title>140232463490464</title>
<polygon fill="#ffa500" stroke="#000000" points="456,-932.4651 346,-932.4651 346,-896.4651 456,-896.4651 456,-932.4651"/>
<text text-anchor="middle" x="401" y="-909.4651" font-family="Times,serif" font-size="20.00" fill="#000000">TBackward</text>
</g>
<!-- 140232463396648&#45;&gt;140232463490464 -->
<g id="edge5" class="edge">
<title>140232463396648&#45;&gt;140232463490464</title>
<path fill="none" stroke="#000000" d="M401,-987.2245C401,-972.7079 401,-956.2946 401,-942.7358"/>
<polygon fill="#000000" stroke="#000000" points="404.5001,-942.5647 401,-932.5647 397.5001,-942.5648 404.5001,-942.5647"/>
</g>
<!-- 140232463396704 -->
<g id="node10" class="node">
<title>140232463396704</title>
<ellipse fill="#556b2f" stroke="#000000" cx="294" cy="-914.4651" rx="33.8824" ry="36.5405"/>
<text text-anchor="middle" x="294" y="-920.4651" font-family="Times,serif" font-size="20.00" fill="#000000">bias</text>
<text text-anchor="middle" x="294" y="-898.4651" font-family="Times,serif" font-size="20.00" fill="#000000">[3]</text>
</g>
<!-- 140232463396704&#45;&gt;140232463490184 -->
<g id="edge6" class="edge">
<title>140232463396704&#45;&gt;140232463490184</title>
<path fill="none" stroke="#000000" d="M310.923,-882.4631C316.3638,-872.1743 322.3376,-860.8778 327.5813,-850.9618"/>
<polygon fill="#000000" stroke="#000000" points="330.763,-852.432 332.3438,-841.9558 324.575,-849.1597 330.763,-852.432"/>
</g>
<!-- 140232463490464&#45;&gt;140232463490184 -->
<g id="edge7" class="edge">
<title>140232463490464&#45;&gt;140232463490184</title>
<path fill="none" stroke="#000000" d="M389.0605,-896.0965C380.5278,-882.9693 368.9134,-865.101 359.358,-850.4002"/>
<polygon fill="#000000" stroke="#000000" points="362.1049,-848.204 353.7204,-841.727 356.2358,-852.0189 362.1049,-848.204"/>
</g>
<!-- 140232463490800 -->
<g id="node12" class="node">
<title>140232463490800</title>
<polygon fill="#ffa500" stroke="#000000" points="235.5,-841.6955 56.5,-841.6955 56.5,-805.6955 235.5,-805.6955 235.5,-841.6955"/>
<text text-anchor="middle" x="146" y="-818.6955" font-family="Times,serif" font-size="20.00" fill="#000000">AddmmBackward&#45;2</text>
</g>
<!-- 140232463490800&#45;&gt;140232463490856 -->
<g id="edge8" class="edge">
<title>140232463490800&#45;&gt;140232463490856</title>
<path fill="none" stroke="#000000" d="M150.0473,-805.327C151.707,-797.7945 153.7106,-788.701 155.729,-779.5406"/>
<polygon fill="#000000" stroke="#000000" points="159.1755,-780.164 157.9094,-769.6451 152.3395,-778.6577 159.1755,-780.164"/>
</g>
<!-- 140232463490576 -->
<g id="node13" class="node">
<title>140232463490576</title>
<ellipse fill="#556b2f" stroke="#000000" cx="173" cy="-1024.0042" rx="49.4949" ry="36.5405"/>
<text text-anchor="middle" x="173" y="-1030.0042" font-family="Times,serif" font-size="20.00" fill="#000000">weight</text>
<text text-anchor="middle" x="173" y="-1008.0042" font-family="Times,serif" font-size="20.00" fill="#000000">[3, 3]</text>
</g>
<!-- 140232463560776 -->
<g id="node14" class="node">
<title>140232463560776</title>
<polygon fill="#ffa500" stroke="#000000" points="236,-932.4651 110,-932.4651 110,-896.4651 236,-896.4651 236,-932.4651"/>
<text text-anchor="middle" x="173" y="-909.4651" font-family="Times,serif" font-size="20.00" fill="#000000">TBackward&#45;2</text>
</g>
<!-- 140232463490576&#45;&gt;140232463560776 -->
<g id="edge9" class="edge">
<title>140232463490576&#45;&gt;140232463560776</title>
<path fill="none" stroke="#000000" d="M173,-987.2245C173,-972.7079 173,-956.2946 173,-942.7358"/>
<polygon fill="#000000" stroke="#000000" points="176.5001,-942.5647 173,-932.5647 169.5001,-942.5648 176.5001,-942.5647"/>
</g>
<!-- 140232463560776&#45;&gt;140232463490800 -->
<g id="edge10" class="edge">
<title>140232463560776&#45;&gt;140232463490800</title>
<path fill="none" stroke="#000000" d="M167.5361,-896.0965C163.7419,-883.3408 158.616,-866.1086 154.317,-851.6559"/>
<polygon fill="#000000" stroke="#000000" points="157.5695,-850.3141 151.3636,-841.727 150.86,-852.3099 157.5695,-850.3141"/>
</g>
<!-- 140232463490632 -->
<g id="node15" class="node">
<title>140232463490632</title>
<ellipse fill="#556b2f" stroke="#000000" cx="58" cy="-914.4651" rx="33.8824" ry="36.5405"/>
<text text-anchor="middle" x="58" y="-920.4651" font-family="Times,serif" font-size="20.00" fill="#000000">bias</text>
<text text-anchor="middle" x="58" y="-898.4651" font-family="Times,serif" font-size="20.00" fill="#000000">[3]</text>
</g>
<!-- 140232463490632&#45;&gt;140232463490800 -->
<g id="edge11" class="edge">
<title>140232463490632&#45;&gt;140232463490800</title>
<path fill="none" stroke="#000000" d="M82.9819,-888.697C95.0168,-876.2833 109.4023,-861.445 121.3884,-849.0817"/>
<polygon fill="#000000" stroke="#000000" points="124.0512,-851.3634 128.4989,-841.7474 119.0253,-846.4909 124.0512,-851.3634"/>
</g>
<!-- 140232463561056&#45;&gt;140232463561168 -->
<g id="edge18" class="edge">
<title>140232463561056&#45;&gt;140232463561168</title>
<path fill="none" stroke="#000000" d="M329,-565.2987C329,-553.2357 329,-536.7791 329,-521.1492"/>
<polygon fill="#000000" stroke="#000000" points="332.5001,-521.0521 329,-511.0521 325.5001,-521.0521 332.5001,-521.0521"/>
</g>
<!-- 140232463560888 -->
<g id="node17" class="node">
<title>140232463560888</title>
<ellipse fill="#556b2f" stroke="#000000" cx="186" cy="-583.3869" rx="49.4949" ry="36.5405"/>
<text text-anchor="middle" x="186" y="-589.3869" font-family="Times,serif" font-size="20.00" fill="#000000">weight</text>
<text text-anchor="middle" x="186" y="-567.3869" font-family="Times,serif" font-size="20.00" fill="#000000">[1, 6]</text>
</g>
<!-- 140232463561560 -->
<g id="node19" class="node">
<title>140232463561560</title>
<polygon fill="#ffa500" stroke="#000000" points="249,-491.8478 123,-491.8478 123,-455.8478 249,-455.8478 249,-491.8478"/>
<text text-anchor="middle" x="186" y="-468.8478" font-family="Times,serif" font-size="20.00" fill="#000000">TBackward&#45;3</text>
</g>
<!-- 140232463560888&#45;&gt;140232463561560 -->
<g id="edge13" class="edge">
<title>140232463560888&#45;&gt;140232463561560</title>
<path fill="none" stroke="#000000" d="M186,-546.6072C186,-532.0906 186,-515.6773 186,-502.1185"/>
<polygon fill="#000000" stroke="#000000" points="189.5001,-501.9474 186,-491.9474 182.5001,-501.9475 189.5001,-501.9474"/>
</g>
<!-- 140232463560944 -->
<g id="node18" class="node">
<title>140232463560944</title>
<ellipse fill="#556b2f" stroke="#000000" cx="71" cy="-473.8478" rx="33.8824" ry="36.5405"/>
<text text-anchor="middle" x="71" y="-479.8478" font-family="Times,serif" font-size="20.00" fill="#000000">bias</text>
<text text-anchor="middle" x="71" y="-457.8478" font-family="Times,serif" font-size="20.00" fill="#000000">[1]</text>
</g>
<!-- 140232463560944&#45;&gt;140232463561280 -->
<g id="edge14" class="edge">
<title>140232463560944&#45;&gt;140232463561280</title>
<path fill="none" stroke="#000000" d="M95.9819,-448.0796C108.0168,-435.666 122.4023,-420.8277 134.3884,-408.4644"/>
<polygon fill="#000000" stroke="#000000" points="137.0512,-410.7461 141.4989,-401.1301 132.0253,-405.8736 137.0512,-410.7461"/>
</g>
<!-- 140232463561560&#45;&gt;140232463561280 -->
<g id="edge15" class="edge">
<title>140232463561560&#45;&gt;140232463561280</title>
<path fill="none" stroke="#000000" d="M180.5361,-455.4792C176.7419,-442.7235 171.616,-425.4913 167.317,-411.0385"/>
<polygon fill="#000000" stroke="#000000" points="170.5695,-409.6967 164.3636,-401.1097 163.86,-411.6926 170.5695,-409.6967"/>
</g>
<!-- 140232463396480 -->
<g id="node20" class="node">
<title>140232463396480</title>
<ellipse fill="#add8e6" stroke="#000000" cx="522" cy="-914.4651" rx="42.3529" ry="36.5405"/>
<text text-anchor="middle" x="522" y="-920.4651" font-family="Times,serif" font-size="20.00" fill="#000000">Input</text>
<text text-anchor="middle" x="522" y="-898.4651" font-family="Times,serif" font-size="20.00" fill="#000000">[1, 3]</text>
</g>
<!-- 140232463396480&#45;&gt;140232463490184 -->
<g id="edge20" class="edge">
<title>140232463396480&#45;&gt;140232463490184</title>
<path fill="none" stroke="#000000" d="M489.2207,-890.6751C482.3602,-886.1175 475.0618,-881.5658 468,-877.6955 446.2748,-865.7889 421.3843,-854.6368 399.4949,-845.5943"/>
<polygon fill="#000000" stroke="#000000" points="400.5757,-842.2553 389.9943,-841.7229 397.9341,-848.7378 400.5757,-842.2553"/>
</g>
<!-- 140232463396480&#45;&gt;140232463490800 -->
<g id="edge19" class="edge">
<title>140232463396480&#45;&gt;140232463490800</title>
<path fill="none" stroke="#000000" d="M490.456,-889.668C483.3839,-885.0761 475.689,-880.7666 468,-877.6955 375.9896,-840.9453 345.6761,-858.305 248,-841.6955 247.2355,-841.5655 246.4678,-841.4348 245.6973,-841.3034"/>
<polygon fill="#000000" stroke="#000000" points="245.9929,-837.8031 235.5452,-839.5627 244.8098,-844.7024 245.9929,-837.8031"/>
</g>
</g>
</svg>
