<?xml version="1.0" encoding="UTF-8" standalone="no"?>
<!DOCTYPE svg PUBLIC "-//W3C//DTD SVG 1.1//EN"
 "http://www.w3.org/Graphics/SVG/1.1/DTD/svg11.dtd">
<!-- Generated by graphviz version 2.40.1 (20161225.0304)
 -->
<!-- Title: %3 Pages: 1 -->
<svg width="572pt" height="1296pt"
 viewBox="0.00 0.00 572.43 1296.31" xmlns="http://www.w3.org/2000/svg" xmlns:xlink="http://www.w3.org/1999/xlink">
<g id="graph0" class="graph" transform="scale(1 1) rotate(0) translate(4 1292.3128)">
<title>%3</title>
<polygon fill="#ffffff" stroke="transparent" points="-4,4 -4,-1292.3128 568.4264,-1292.3128 568.4264,4 -4,4"/>
<text text-anchor="middle" x="282.2132" y="-10.8" font-family="Times,serif" font-size="24.00" fill="#000000">Sample Net at depth=2</text>
<g id="clust1" class="cluster">
<title>cluster_140010796642880</title>
<polygon fill="#ffffff" stroke="#000000" points="8,-135.5391 8,-1280.3128 472,-1280.3128 472,-135.5391 8,-135.5391"/>
<text text-anchor="middle" x="240" y="-1257.1128" font-family="Times,serif" font-size="24.00" fill="#000000">Sample Net</text>
</g>
<g id="clust2" class="cluster">
<title>cluster_140010796243488</title>
<polygon fill="#ffffff" stroke="#000000" points="68,-245.0782 68,-357.0782 243,-357.0782 243,-245.0782 68,-245.0782"/>
<text text-anchor="middle" x="155.5" y="-333.8782" font-family="Times,serif" font-size="24.00" fill="#000000">my_special_relu</text>
<text text-anchor="middle" x="155.5" y="-307.8782" font-family="Times,serif" font-size="24.00" fill="#000000">(ReLU)</text>
</g>
<g id="clust3" class="cluster">
<title>cluster_140010796242536</title>
<polygon fill="#ffffff" stroke="#000000" points="236,-907.2346 236,-1238.3128 464,-1238.3128 464,-907.2346 236,-907.2346"/>
<text text-anchor="middle" x="350" y="-1215.1128" font-family="Times,serif" font-size="24.00" fill="#000000">linear_2</text>
<text text-anchor="middle" x="350" y="-1189.1128" font-family="Times,serif" font-size="24.00" fill="#000000">(Linear)</text>
</g>
<g id="clust4" class="cluster">
<title>cluster_140010796646296</title>
<polygon fill="#ffffff" stroke="#000000" points="16,-907.2346 16,-1238.3128 228,-1238.3128 228,-907.2346 16,-907.2346"/>
<text text-anchor="middle" x="122" y="-1215.1128" font-family="Times,serif" font-size="24.00" fill="#000000">linear_1</text>
<text text-anchor="middle" x="122" y="-1189.1128" font-family="Times,serif" font-size="24.00" fill="#000000">(Linear)</text>
</g>
<g id="clust5" class="cluster">
<title>cluster_140010796242704</title>
<polygon fill="#ffffff" stroke="#000000" points="25,-466.6173 25,-797.6955 253,-797.6955 253,-466.6173 25,-466.6173"/>
<text text-anchor="middle" x="139" y="-774.4955" font-family="Times,serif" font-size="24.00" fill="#000000">linear_3</text>
<text text-anchor="middle" x="139" y="-748.4955" font-family="Times,serif" font-size="24.00" fill="#000000">(Linear)</text>
</g>
<!-- 140010796319128 -->
<g id="node1" class="node">
<title>140010796319128</title>
<ellipse fill="#add8e6" stroke="#000000" cx="325" cy="-583.3869" rx="62.4516" ry="36.5405"/>
<text text-anchor="middle" x="325" y="-589.3869" font-family="Times,serif" font-size="20.00" fill="#000000">Tensor&#45;4</text>
<text text-anchor="middle" x="325" y="-567.3869" font-family="Times,serif" font-size="20.00" fill="#000000">[1, 6]</text>
</g>
<!-- 140010796319184 -->
<g id="node2" class="node">
<title>140010796319184</title>
<polygon fill="#ffa500" stroke="#000000" points="244.5,-510.6173 65.5,-510.6173 65.5,-474.6173 244.5,-474.6173 244.5,-510.6173"/>
<text text-anchor="middle" x="155" y="-487.6173" font-family="Times,serif" font-size="20.00" fill="#000000">AddmmBackward&#45;3</text>
</g>
<!-- 140010796319128&#45;&gt;140010796319184 -->
<g id="edge1" class="edge">
<title>140010796319128&#45;&gt;140010796319184</title>
<path fill="none" stroke="#000000" d="M278.941,-558.4106C271.6074,-554.4543 264.1001,-550.4163 257,-546.6173 237.8935,-536.3943 216.7265,-525.1715 198.6499,-515.6181"/>
<polygon fill="#000000" stroke="#000000" points="199.983,-512.3641 189.5059,-510.7887 196.7138,-518.5538 199.983,-512.3641"/>
</g>
<!-- 140010796319296 -->
<g id="node5" class="node">
<title>140010796319296</title>
<ellipse fill="#add8e6" stroke="#000000" cx="155" cy="-401.8478" rx="62.4516" ry="36.5405"/>
<text text-anchor="middle" x="155" y="-407.8478" font-family="Times,serif" font-size="20.00" fill="#000000">Tensor&#45;5</text>
<text text-anchor="middle" x="155" y="-385.8478" font-family="Times,serif" font-size="20.00" fill="#000000">[1, 1]</text>
</g>
<!-- 140010796319184&#45;&gt;140010796319296 -->
<g id="edge13" class="edge">
<title>140010796319184&#45;&gt;140010796319296</title>
<path fill="none" stroke="#000000" d="M155,-474.2487C155,-466.8717 155,-457.9973 155,-449.0293"/>
<polygon fill="#000000" stroke="#000000" points="158.5001,-448.939 155,-438.9391 151.5001,-448.9391 158.5001,-448.939"/>
</g>
<!-- 140010796319800 -->
<g id="node3" class="node">
<title>140010796319800</title>
<ellipse fill="#add8e6" stroke="#000000" cx="155" cy="-180.3087" rx="62.4516" ry="36.5405"/>
<text text-anchor="middle" x="155" y="-186.3087" font-family="Times,serif" font-size="20.00" fill="#000000">Tensor&#45;6</text>
<text text-anchor="middle" x="155" y="-164.3087" font-family="Times,serif" font-size="20.00" fill="#000000">[1, 1]</text>
</g>
<!-- 140010796319968 -->
<g id="node4" class="node">
<title>140010796319968</title>
<ellipse fill="#add8e6" stroke="#000000" cx="155" cy="-70.7696" rx="50.41" ry="36.5405"/>
<text text-anchor="middle" x="155" y="-76.7696" font-family="Times,serif" font-size="20.00" fill="#000000">Output</text>
<text text-anchor="middle" x="155" y="-54.7696" font-family="Times,serif" font-size="20.00" fill="#000000">[1, 1]</text>
</g>
<!-- 140010796319800&#45;&gt;140010796319968 -->
<g id="edge2" class="edge">
<title>140010796319800&#45;&gt;140010796319968</title>
<path fill="none" stroke="#000000" d="M155,-143.529C155,-135.3103 155,-126.4835 155,-117.911"/>
<polygon fill="#000000" stroke="#000000" points="158.5001,-117.6386 155,-107.6386 151.5001,-117.6386 158.5001,-117.6386"/>
</g>
<!-- 140010796319688 -->
<g id="node6" class="node">
<title>140010796319688</title>
<polygon fill="#ffa500" stroke="#000000" points="227.5,-289.0782 82.5,-289.0782 82.5,-253.0782 227.5,-253.0782 227.5,-289.0782"/>
<text text-anchor="middle" x="155" y="-266.0782" font-family="Times,serif" font-size="20.00" fill="#000000">ReluBackward0</text>
</g>
<!-- 140010796319296&#45;&gt;140010796319688 -->
<g id="edge3" class="edge">
<title>140010796319296&#45;&gt;140010796319688</title>
<path fill="none" stroke="#000000" d="M155,-365.0732C155,-344.2632 155,-318.637 155,-299.401"/>
<polygon fill="#000000" stroke="#000000" points="158.5001,-299.171 155,-289.171 151.5001,-299.171 158.5001,-299.171"/>
</g>
<!-- 140010796319688&#45;&gt;140010796319800 -->
<g id="edge4" class="edge">
<title>140010796319688&#45;&gt;140010796319800</title>
<path fill="none" stroke="#000000" d="M155,-252.7096C155,-245.3326 155,-236.4582 155,-227.4902"/>
<polygon fill="#000000" stroke="#000000" points="158.5001,-227.3999 155,-217.4 151.5001,-227.4 158.5001,-227.3999"/>
</g>
<!-- 140010796244720 -->
<g id="node7" class="node">
<title>140010796244720</title>
<ellipse fill="#add8e6" stroke="#000000" cx="329" cy="-842.4651" rx="62.4516" ry="36.5405"/>
<text text-anchor="middle" x="329" y="-848.4651" font-family="Times,serif" font-size="20.00" fill="#000000">Tensor&#45;3</text>
<text text-anchor="middle" x="329" y="-826.4651" font-family="Times,serif" font-size="20.00" fill="#000000">[1, 3]</text>
</g>
<!-- 140010796319016 -->
<g id="node8" class="node">
<title>140010796319016</title>
<polygon fill="#ffa500" stroke="#000000" points="387.5,-710.926 262.5,-710.926 262.5,-674.926 387.5,-674.926 387.5,-710.926"/>
<text text-anchor="middle" x="325" y="-687.926" font-family="Times,serif" font-size="20.00" fill="#000000">CatBackward</text>
</g>
<!-- 140010796244720&#45;&gt;140010796319016 -->
<g id="edge17" class="edge">
<title>140010796244720&#45;&gt;140010796319016</title>
<path fill="none" stroke="#000000" d="M328.0112,-805.5003C327.3171,-779.5493 326.4024,-745.353 325.764,-721.4877"/>
<polygon fill="#000000" stroke="#000000" points="329.2582,-721.2191 325.4919,-711.3162 322.2607,-721.4063 329.2582,-721.2191"/>
</g>
<!-- 140010796319016&#45;&gt;140010796319128 -->
<g id="edge18" class="edge">
<title>140010796319016&#45;&gt;140010796319128</title>
<path fill="none" stroke="#000000" d="M325,-674.8378C325,-662.7748 325,-646.3182 325,-630.6883"/>
<polygon fill="#000000" stroke="#000000" points="328.5001,-630.5912 325,-620.5912 321.5001,-630.5912 328.5001,-630.5912"/>
</g>
<!-- 140010796244104 -->
<g id="node9" class="node">
<title>140010796244104</title>
<ellipse fill="#add8e6" stroke="#000000" cx="160" cy="-842.4651" rx="62.4516" ry="36.5405"/>
<text text-anchor="middle" x="160" y="-848.4651" font-family="Times,serif" font-size="20.00" fill="#000000">Tensor&#45;2</text>
<text text-anchor="middle" x="160" y="-826.4651" font-family="Times,serif" font-size="20.00" fill="#000000">[1, 3]</text>
</g>
<!-- 140010796244104&#45;&gt;140010796319016 -->
<g id="edge19" class="edge">
<title>140010796244104&#45;&gt;140010796319016</title>
<path fill="none" stroke="#000000" d="M214.05,-823.963C228.9963,-817.2061 244.522,-808.5024 257,-797.6955 281.8127,-776.2059 301.0574,-743.498 312.6432,-720.3526"/>
<polygon fill="#000000" stroke="#000000" points="315.9255,-721.6049 317.1336,-711.0791 309.6253,-718.5541 315.9255,-721.6049"/>
</g>
<!-- 140010796244608 -->
<g id="node10" class="node">
<title>140010796244608</title>
<polygon fill="#ffa500" stroke="#000000" points="423.5,-951.2346 244.5,-951.2346 244.5,-915.2346 423.5,-915.2346 423.5,-951.2346"/>
<text text-anchor="middle" x="334" y="-928.2346" font-family="Times,serif" font-size="20.00" fill="#000000">AddmmBackward&#45;2</text>
</g>
<!-- 140010796244608&#45;&gt;140010796244720 -->
<g id="edge5" class="edge">
<title>140010796244608&#45;&gt;140010796244720</title>
<path fill="none" stroke="#000000" d="M332.9882,-914.8661C332.5818,-907.489 332.093,-898.6146 331.599,-889.6466"/>
<polygon fill="#000000" stroke="#000000" points="335.088,-889.3487 331.0432,-879.5564 328.0986,-889.7338 335.088,-889.3487"/>
</g>
<!-- 140010796244440 -->
<g id="node11" class="node">
<title>140010796244440</title>
<ellipse fill="#556b2f" stroke="#000000" cx="393" cy="-1133.5433" rx="49.4949" ry="36.5405"/>
<text text-anchor="middle" x="393" y="-1139.5433" font-family="Times,serif" font-size="20.00" fill="#000000">weight</text>
<text text-anchor="middle" x="393" y="-1117.5433" font-family="Times,serif" font-size="20.00" fill="#000000">[3, 3]</text>
</g>
<!-- 140010796244944 -->
<g id="node13" class="node">
<title>140010796244944</title>
<polygon fill="#ffa500" stroke="#000000" points="456,-1042.0042 330,-1042.0042 330,-1006.0042 456,-1006.0042 456,-1042.0042"/>
<text text-anchor="middle" x="393" y="-1019.0042" font-family="Times,serif" font-size="20.00" fill="#000000">TBackward&#45;2</text>
</g>
<!-- 140010796244440&#45;&gt;140010796244944 -->
<g id="edge6" class="edge">
<title>140010796244440&#45;&gt;140010796244944</title>
<path fill="none" stroke="#000000" d="M393,-1096.7636C393,-1082.2471 393,-1065.8337 393,-1052.2749"/>
<polygon fill="#000000" stroke="#000000" points="396.5001,-1052.1038 393,-1042.1039 389.5001,-1052.1039 396.5001,-1052.1038"/>
</g>
<!-- 140010796244496 -->
<g id="node12" class="node">
<title>140010796244496</title>
<ellipse fill="#556b2f" stroke="#000000" cx="278" cy="-1024.0042" rx="33.8824" ry="36.5405"/>
<text text-anchor="middle" x="278" y="-1030.0042" font-family="Times,serif" font-size="20.00" fill="#000000">bias</text>
<text text-anchor="middle" x="278" y="-1008.0042" font-family="Times,serif" font-size="20.00" fill="#000000">[3]</text>
</g>
<!-- 140010796244496&#45;&gt;140010796244608 -->
<g id="edge7" class="edge">
<title>140010796244496&#45;&gt;140010796244608</title>
<path fill="none" stroke="#000000" d="M296.959,-993.2738C303.5853,-982.5334 310.9682,-970.5665 317.3883,-960.1602"/>
<polygon fill="#000000" stroke="#000000" points="320.4672,-961.8356 322.7391,-951.4872 314.5097,-958.1601 320.4672,-961.8356"/>
</g>
<!-- 140010796244944&#45;&gt;140010796244608 -->
<g id="edge8" class="edge">
<title>140010796244944&#45;&gt;140010796244608</title>
<path fill="none" stroke="#000000" d="M381.0605,-1005.6356C372.5278,-992.5084 360.9134,-974.6401 351.358,-959.9394"/>
<polygon fill="#000000" stroke="#000000" points="354.1049,-957.7431 345.7204,-951.2661 348.2358,-961.558 354.1049,-957.7431"/>
</g>
<!-- 140010796243992 -->
<g id="node14" class="node">
<title>140010796243992</title>
<polygon fill="#ffa500" stroke="#000000" points="219.5,-951.2346 56.5,-951.2346 56.5,-915.2346 219.5,-915.2346 219.5,-951.2346"/>
<text text-anchor="middle" x="138" y="-928.2346" font-family="Times,serif" font-size="20.00" fill="#000000">AddmmBackward</text>
</g>
<!-- 140010796243992&#45;&gt;140010796244104 -->
<g id="edge9" class="edge">
<title>140010796243992&#45;&gt;140010796244104</title>
<path fill="none" stroke="#000000" d="M142.452,-914.8661C144.2777,-907.3336 146.4817,-898.2401 148.7019,-889.0797"/>
<polygon fill="#000000" stroke="#000000" points="152.1462,-889.7273 151.1003,-879.1842 145.3432,-888.0784 152.1462,-889.7273"/>
</g>
<!-- 140010796243824 -->
<g id="node15" class="node">
<title>140010796243824</title>
<ellipse fill="#556b2f" stroke="#000000" cx="165" cy="-1133.5433" rx="49.4949" ry="36.5405"/>
<text text-anchor="middle" x="165" y="-1139.5433" font-family="Times,serif" font-size="20.00" fill="#000000">weight</text>
<text text-anchor="middle" x="165" y="-1117.5433" font-family="Times,serif" font-size="20.00" fill="#000000">[3, 3]</text>
</g>
<!-- 140010796244328 -->
<g id="node17" class="node">
<title>140010796244328</title>
<polygon fill="#ffa500" stroke="#000000" points="220,-1042.0042 110,-1042.0042 110,-1006.0042 220,-1006.0042 220,-1042.0042"/>
<text text-anchor="middle" x="165" y="-1019.0042" font-family="Times,serif" font-size="20.00" fill="#000000">TBackward</text>
</g>
<!-- 140010796243824&#45;&gt;140010796244328 -->
<g id="edge10" class="edge">
<title>140010796243824&#45;&gt;140010796244328</title>
<path fill="none" stroke="#000000" d="M165,-1096.7636C165,-1082.2471 165,-1065.8337 165,-1052.2749"/>
<polygon fill="#000000" stroke="#000000" points="168.5001,-1052.1038 165,-1042.1039 161.5001,-1052.1039 168.5001,-1052.1038"/>
</g>
<!-- 140010796243880 -->
<g id="node16" class="node">
<title>140010796243880</title>
<ellipse fill="#556b2f" stroke="#000000" cx="58" cy="-1024.0042" rx="33.8824" ry="36.5405"/>
<text text-anchor="middle" x="58" y="-1030.0042" font-family="Times,serif" font-size="20.00" fill="#000000">bias</text>
<text text-anchor="middle" x="58" y="-1008.0042" font-family="Times,serif" font-size="20.00" fill="#000000">[3]</text>
</g>
<!-- 140010796243880&#45;&gt;140010796243992 -->
<g id="edge11" class="edge">
<title>140010796243880&#45;&gt;140010796243992</title>
<path fill="none" stroke="#000000" d="M81.5699,-997.2613C92.1303,-985.2793 104.5399,-971.1991 115.0287,-959.2983"/>
<polygon fill="#000000" stroke="#000000" points="117.9508,-961.2763 121.9371,-951.4599 112.6993,-956.6479 117.9508,-961.2763"/>
</g>
<!-- 140010796244328&#45;&gt;140010796243992 -->
<g id="edge12" class="edge">
<title>140010796244328&#45;&gt;140010796243992</title>
<path fill="none" stroke="#000000" d="M159.5361,-1005.6356C155.7419,-992.8799 150.616,-975.6477 146.317,-961.195"/>
<polygon fill="#000000" stroke="#000000" points="149.5695,-959.8532 143.3636,-951.2661 142.86,-961.849 149.5695,-959.8532"/>
</g>
<!-- 140010796318848 -->
<g id="node18" class="node">
<title>140010796318848</title>
<ellipse fill="#556b2f" stroke="#000000" cx="182" cy="-692.926" rx="49.4949" ry="36.5405"/>
<text text-anchor="middle" x="182" y="-698.926" font-family="Times,serif" font-size="20.00" fill="#000000">weight</text>
<text text-anchor="middle" x="182" y="-676.926" font-family="Times,serif" font-size="20.00" fill="#000000">[1, 6]</text>
</g>
<!-- 140010796319520 -->
<g id="node19" class="node">
<title>140010796319520</title>
<polygon fill="#ffa500" stroke="#000000" points="245,-601.3869 119,-601.3869 119,-565.3869 245,-565.3869 245,-601.3869"/>
<text text-anchor="middle" x="182" y="-578.3869" font-family="Times,serif" font-size="20.00" fill="#000000">TBackward&#45;3</text>
</g>
<!-- 140010796318848&#45;&gt;140010796319520 -->
<g id="edge14" class="edge">
<title>140010796318848&#45;&gt;140010796319520</title>
<path fill="none" stroke="#000000" d="M182,-656.1463C182,-641.6297 182,-625.2164 182,-611.6576"/>
<polygon fill="#000000" stroke="#000000" points="185.5001,-611.4865 182,-601.4865 178.5001,-611.4866 185.5001,-611.4865"/>
</g>
<!-- 140010796319520&#45;&gt;140010796319184 -->
<g id="edge15" class="edge">
<title>140010796319520&#45;&gt;140010796319184</title>
<path fill="none" stroke="#000000" d="M176.5361,-565.0183C172.7419,-552.2626 167.616,-535.0304 163.317,-520.5776"/>
<polygon fill="#000000" stroke="#000000" points="166.5695,-519.2358 160.3636,-510.6488 159.86,-521.2317 166.5695,-519.2358"/>
</g>
<!-- 140010796318904 -->
<g id="node20" class="node">
<title>140010796318904</title>
<ellipse fill="#556b2f" stroke="#000000" cx="67" cy="-583.3869" rx="33.8824" ry="36.5405"/>
<text text-anchor="middle" x="67" y="-589.3869" font-family="Times,serif" font-size="20.00" fill="#000000">bias</text>
<text text-anchor="middle" x="67" y="-567.3869" font-family="Times,serif" font-size="20.00" fill="#000000">[1]</text>
</g>
<!-- 140010796318904&#45;&gt;140010796319184 -->
<g id="edge16" class="edge">
<title>140010796318904&#45;&gt;140010796319184</title>
<path fill="none" stroke="#000000" d="M91.9819,-557.6188C104.0168,-545.2051 118.4023,-530.3668 130.3884,-518.0035"/>
<polygon fill="#000000" stroke="#000000" points="133.0512,-520.2852 137.4989,-510.6692 128.0253,-515.4127 133.0512,-520.2852"/>
</g>
<!-- 140010796243656 -->
<g id="node21" class="node">
<title>140010796243656</title>
<ellipse fill="#add8e6" stroke="#000000" cx="522" cy="-1024.0042" rx="42.3529" ry="36.5405"/>
<text text-anchor="middle" x="522" y="-1030.0042" font-family="Times,serif" font-size="20.00" fill="#000000">Input</text>
<text text-anchor="middle" x="522" y="-1008.0042" font-family="Times,serif" font-size="20.00" fill="#000000">[1, 3]</text>
</g>
<!-- 140010796243656&#45;&gt;140010796244608 -->
<g id="edge21" class="edge">
<title>140010796243656&#45;&gt;140010796244608</title>
<path fill="none" stroke="#000000" d="M489.576,-1000.2854C482.6267,-995.6724 475.2036,-991.081 468,-987.2346 445.0536,-974.9823 418.7069,-963.7947 395.4809,-954.82"/>
<polygon fill="#000000" stroke="#000000" points="396.6666,-951.5264 386.0756,-951.2395 394.1761,-958.0684 396.6666,-951.5264"/>
</g>
<!-- 140010796243656&#45;&gt;140010796243992 -->
<g id="edge20" class="edge">
<title>140010796243656&#45;&gt;140010796243992</title>
<path fill="none" stroke="#000000" d="M490.4813,-999.1433C483.4075,-994.5557 475.7055,-990.2641 468,-987.2346 369.2551,-948.4128 336.5676,-969.2153 232,-951.2346 231.2477,-951.1053 230.4922,-950.9748 229.7338,-950.8432"/>
<polygon fill="#000000" stroke="#000000" points="230.1956,-947.3707 219.7394,-949.0791 228.9788,-954.2641 230.1956,-947.3707"/>
</g>
</g>
</svg>
